<?xml version="1.0" encoding="UTF-8"?>
<svg width="18px" height="16px" viewBox="0 0 18 16" version="1.1" xmlns="http://www.w3.org/2000/svg" xmlns:xlink="http://www.w3.org/1999/xlink">
    <!-- Generator: Sketch 55.2 (78181) - https://sketchapp.com -->
    <title>ic_heart</title>
    <desc>Created with Sketch.</desc>
    <g id="Page-1" stroke="none" stroke-width="1" fill="none" fill-rule="evenodd">
        <g id="Tourist-comment" transform="translate(-312.000000, -595.000000)" fill="#FF7074" fill-rule="nonzero">
            <g id="Group-6" transform="translate(15.000000, 441.000000)">
                <g id="Group-Copy">
                    <g id="Group-7" transform="translate(286.000000, 142.000000)">
                        <g id="ic_heart" transform="translate(11.555556, 12.444444)">
                            <path d="M15.1397268,1.09128907 C13.2307478,-0.549599193 10.2814082,-0.303128322 8.45499746,1.59773606 C6.62858673,-0.303128322 3.67924716,-0.552975506 1.77026813,1.09128907 C-0.713386241,3.22849539 -0.350085734,6.71285071 1.42017855,8.55969408 L7.21317027,14.5931659 C7.54344346,14.9375499 7.98600953,15.1299998 8.45499746,15.1299998 C8.92728812,15.1299998 9.36655146,14.9409262 9.69682465,14.5965423 L15.4898164,8.56307039 C17.2567779,6.71622702 17.6266839,3.2318717 15.1397268,1.09128907 Z M14.3602821,7.4218765 L8.56729034,13.4553484 C8.48802478,13.5363799 8.42197014,13.5363799 8.34270458,13.4553484 L2.54971286,7.4218765 C1.34421572,6.16588795 1.09981356,3.78896339 2.79081229,2.33377236 C4.07557499,1.22971791 6.05721412,1.39515727 7.2990413,2.68828526 L8.45499746,3.89362911 L9.61095362,2.68828526 C10.8593863,1.38840464 12.8410254,1.22971791 14.1191826,2.33039605 C15.8068786,3.78558708 15.555871,6.17601689 14.3602821,7.4218765 L14.3602821,7.4218765 Z" id="Shape"></path>
                        </g>
                    </g>
                </g>
            </g>
        </g>
    </g>
</svg>