<?xml version="1.0" encoding="UTF-8"?>
<svg width="20px" height="18px" viewBox="0 0 20 18" version="1.1" xmlns="http://www.w3.org/2000/svg" xmlns:xlink="http://www.w3.org/1999/xlink">
    <!-- Generator: Sketch 55.2 (78181) - https://sketchapp.com -->
    <title>ic_left_arrow</title>
    <desc>Created with Sketch.</desc>
    <g id="Page-1" stroke="none" stroke-width="1" fill="none" fill-rule="evenodd">
        <g id="Tourist-add" transform="translate(-27.000000, -28.000000)" fill="#757685" fill-rule="nonzero">
            <g id="Group-4" transform="translate(15.000000, 15.000000)">
                <g id="ic_left_arrow" transform="translate(12.000000, 13.600000)">
                    <path d="M18.8757726,6.71316662 L18.9069921,6.71997116 L5.52390559,6.71997116 L9.73105915,2.51881459 C9.93707536,2.31370626 10.0500835,2.03585413 10.0500835,1.74423091 C10.0500835,1.45260768 9.93707536,1.17669971 9.73105915,0.971105336 L9.07642514,0.318517366 C8.87057153,0.113409032 8.59626265,0 8.30374239,0 C8.01105952,0 7.73658804,0.112598967 7.53073442,0.317707301 L0.318866075,7.50281751 C0.112199454,7.7087359 -0.000808651634,7.98302375 0,8.27480899 C-0.000808651634,8.56821435 0.112199454,8.84266421 0.318866075,9.04825858 L7.53073442,16.2340168 C7.73658804,16.4389632 8.01089692,16.5517241 8.30374239,16.5517241 C8.59626265,16.5517241 8.87057153,16.4388011 9.07642514,16.2340168 L9.73105915,15.5814289 C9.93707536,15.3766446 10.0500835,15.1031668 10.0500835,14.8115436 C10.0500835,14.5200823 9.93707536,14.2610237 9.73105915,14.0560774 L5.47642593,9.83142895 L18.8907319,9.83142895 C19.493496,9.83142895 20,9.31379773 20,8.71353992 L20,7.79055242 C20,7.19029462 19.4785367,6.71316662 18.8757726,6.71316662 Z" id="Path"></path>
                </g>
            </g>
        </g>
    </g>
</svg>