<?xml version="1.0" encoding="UTF-8"?>
<svg width="16px" height="16px" viewBox="0 0 16 16" version="1.1" xmlns="http://www.w3.org/2000/svg" xmlns:xlink="http://www.w3.org/1999/xlink">
    <!-- Generator: Sketch 55.2 (78181) - https://sketchapp.com -->
    <title>ic_plus</title>
    <desc>Created with Sketch.</desc>
    <g id="Page-1" stroke="none" stroke-width="1" fill="none" fill-rule="evenodd">
        <g id="Home" transform="translate(-326.000000, -36.000000)" fill="#757685" fill-rule="nonzero">
            <g id="Group" transform="translate(15.000000, 19.000000)">
                <path d="M325.857143,23.2857143 L320.714286,23.2857143 L320.714286,18.1428571 C320.714286,17.5117857 320.2025,17 319.571429,17 L318.428571,17 C317.7975,17 317.285714,17.5117857 317.285714,18.1428571 L317.285714,23.2857143 L312.142857,23.2857143 C311.511786,23.2857143 311,23.7975 311,24.4285714 L311,25.5714286 C311,26.2025 311.511786,26.7142857 312.142857,26.7142857 L317.285714,26.7142857 L317.285714,31.8571429 C317.285714,32.4882143 317.7975,33 318.428571,33 L319.571429,33 C320.2025,33 320.714286,32.4882143 320.714286,31.8571429 L320.714286,26.7142857 L325.857143,26.7142857 C326.488214,26.7142857 327,26.2025 327,25.5714286 L327,24.4285714 C327,23.7975 326.488214,23.2857143 325.857143,23.2857143 Z" id="ic_plus"></path>
            </g>
        </g>
    </g>
</svg>