<?xml version="1.0" encoding="UTF-8"?>
<svg width="18px" height="25px" viewBox="0 0 18 25" version="1.1" xmlns="http://www.w3.org/2000/svg" xmlns:xlink="http://www.w3.org/1999/xlink">
    <!-- Generator: Sketch 55.2 (78181) - https://sketchapp.com -->
    <title>ic_pin</title>
    <desc>Created with Sketch.</desc>
    <g id="Page-1" stroke="none" stroke-width="1" fill="none" fill-rule="evenodd">
        <g id="Home" transform="translate(-179.000000, -630.000000)" fill="#10159A" fill-rule="nonzero">
            <path d="M188,630 C183.037373,630 179,633.968789 179,638.847066 C179,644.90116 187.054118,653.788925 187.39703,654.164324 C187.719119,654.516964 188.281464,654.516344 188.60297,654.164324 C188.945882,653.788925 197,644.90116 197,638.847066 C197,633.968789 192.962578,630 188,630 Z M188,643.298272 C185.503179,643.298272 183.471922,641.301472 183.471922,638.847066 C183.471922,636.39266 185.503228,634.395908 188,634.395908 C190.496772,634.395908 192.52803,636.392707 192.52803,638.847114 C192.52803,641.30152 190.496772,643.298272 188,643.298272 Z" id="ic_pin"></path>
        </g>
    </g>
</svg>