<?xml version="1.0" encoding="UTF-8"?>
<svg width="19px" height="19px" viewBox="0 0 19 19" version="1.1" xmlns="http://www.w3.org/2000/svg" xmlns:xlink="http://www.w3.org/1999/xlink">
    <!-- Generator: Sketch 55.2 (78181) - https://sketchapp.com -->
    <title>ic_search</title>
    <desc>Created with Sketch.</desc>
    <g id="Page-1" stroke="none" stroke-width="1" fill="none" fill-rule="evenodd">
        <g id="Home" transform="translate(-30.000000, -35.000000)" fill="#757685" fill-rule="nonzero">
            <g id="Group" transform="translate(15.000000, 19.000000)">
                <g id="ic_search" transform="translate(15.000000, 16.000000)">
                    <g id="search">
                        <path d="M18.715,17.385 L14.44,13.11 C15.485,11.78 16.15,9.975 16.15,8.075 C16.15,3.61 12.54,0 8.075,0 C3.61,0 0,3.61 0,8.075 C0,12.54 3.61,16.15 8.075,16.15 C9.975,16.15 11.685,15.485 13.11,14.44 L17.385,18.715 C17.575,18.905 17.86,19 18.05,19 C18.24,19 18.525,18.905 18.715,18.715 C19.095,18.335 19.095,17.765 18.715,17.385 Z M1.9,8.075 C1.9,4.655 4.655,1.9 8.075,1.9 C11.495,1.9 14.25,4.655 14.25,8.075 C14.25,9.785 13.585,11.305 12.445,12.445 C12.445,12.445 12.445,12.445 12.445,12.445 C12.445,12.445 12.445,12.445 12.445,12.445 C11.305,13.585 9.785,14.25 8.075,14.25 C4.655,14.25 1.9,11.495 1.9,8.075 Z" id="Shape"></path>
                    </g>
                </g>
            </g>
        </g>
    </g>
</svg>