<?xml version="1.0" encoding="UTF-8"?>
<svg width="14px" height="14px" viewBox="0 0 14 14" version="1.1" xmlns="http://www.w3.org/2000/svg" xmlns:xlink="http://www.w3.org/1999/xlink">
    <!-- Generator: Sketch 55.2 (78181) - https://sketchapp.com -->
    <title>ic_times_error</title>
    <desc>Created with Sketch.</desc>
    <g id="Page-1" stroke="none" stroke-width="1" fill="none" fill-rule="evenodd">
        <g id="Tourist-open---Like" transform="translate(-30.000000, -30.000000)" fill="#757685" fill-rule="nonzero">
            <g id="Group-4" transform="translate(37.000000, 37.000000) rotate(-90.000000) translate(-37.000000, -37.000000) translate(15.000000, 15.000000)">
                <path d="M28.8571429,20.2857143 L23.7142857,20.2857143 L23.7142857,15.1428571 C23.7142857,14.5117857 23.2025,14 22.5714286,14 L21.4285714,14 C20.7975,14 20.2857143,14.5117857 20.2857143,15.1428571 L20.2857143,20.2857143 L15.1428571,20.2857143 C14.5117857,20.2857143 14,20.7975 14,21.4285714 L14,22.5714286 C14,23.2025 14.5117857,23.7142857 15.1428571,23.7142857 L20.2857143,23.7142857 L20.2857143,28.8571429 C20.2857143,29.4882143 20.7975,30 21.4285714,30 L22.5714286,30 C23.2025,30 23.7142857,29.4882143 23.7142857,28.8571429 L23.7142857,23.7142857 L28.8571429,23.7142857 C29.4882143,23.7142857 30,23.2025 30,22.5714286 L30,21.4285714 C30,20.7975 29.4882143,20.2857143 28.8571429,20.2857143 Z" id="ic_times_error" transform="translate(22.000000, 22.000000) rotate(-315.000000) translate(-22.000000, -22.000000) "></path>
            </g>
        </g>
    </g>
</svg>