<?xml version="1.0" encoding="UTF-8"?>
<svg width="105px" height="90px" viewBox="0 0 105 90" version="1.1" xmlns="http://www.w3.org/2000/svg" xmlns:xlink="http://www.w3.org/1999/xlink">
    <!-- Generator: Sketch 55.2 (78181) - https://sketchapp.com -->
    <title>logo_snowmanlabs</title>
    <desc>Created with Sketch.</desc>
    <g id="Page-1" stroke="none" stroke-width="1" fill="none" fill-rule="evenodd">
        <g id="logo_snowmanlabs" fill="#11159A" fill-rule="nonzero">
            <path d="M12.4140449,0.296296296 C14.0561475,0.271761858 15.6908796,0.520098804 17.2511236,1.03111111 C18.5339895,1.4446254 19.7400908,2.06521737 20.8213483,2.86814815 C21.7418015,3.52109334 22.5244458,4.34814825 23.1247191,5.30222222 C23.600759,6.055469 23.8780759,6.91646047 23.9308989,7.80518519 C23.9330047,8.01257237 23.8497554,8.21175693 23.7005618,8.3562963 C23.5642981,8.50381607 23.3719396,8.58719334 23.1707865,8.58592593 L15.8921348,8.58592593 C15.6166301,8.59779872 15.3417625,8.55082327 15.0859551,8.44814815 C14.8502642,8.26402164 14.6341507,8.05626655 14.4410112,7.82814815 C14.2293043,7.63173543 13.9884533,7.46907944 13.7269663,7.34592593 C13.3427873,7.17802509 12.9253149,7.09949863 12.5061798,7.1162963 C12.0193698,7.10043652 11.5437627,7.26393525 11.1702247,7.57555556 C10.9362034,7.77975973 10.7949711,8.06963895 10.7786517,8.37925926 C10.7751038,8.55371238 10.832055,8.72404118 10.9398876,8.86148148 C11.1106948,9.04727418 11.3240734,9.18908966 11.5617978,9.27481481 C11.9628065,9.43909512 12.3795669,9.56220042 12.805618,9.64222222 C13.3277154,9.74938272 14.0033708,9.84888889 14.8325843,9.94074074 C16.3943708,10.1099262 17.9367399,10.4251407 19.4393258,10.8822222 C20.56348,11.2184225 21.6170779,11.7552742 22.5488764,12.4666667 C23.3203791,13.0696656 23.9232342,13.8604597 24.2994382,14.762963 C24.6851802,15.7503425 24.8729923,16.803541 24.8522472,17.862963 C24.8783701,19.1184351 24.5597736,20.3571453 23.9308989,21.4451852 C23.2968694,22.5171549 22.4313542,23.4349208 21.397191,24.1318519 C20.2272585,24.9080185 18.9346914,25.4824534 17.5735955,25.8311111 C16.0104931,26.2424818 14.3991636,26.4432794 12.7825843,26.4281481 C11.0107481,26.4545902 9.24366718,26.2382467 7.53089888,25.7851852 C6.20428615,25.4401733 4.94897663,24.8649708 3.82247191,24.0859259 C2.87393389,23.4560819 2.08536323,22.6149028 1.51910112,21.6288889 C1.03040566,20.7322047 0.762011434,19.7327525 0.735916055,18.7125926 C0.733849234,18.5052054 0.81709849,18.3060208 0.966292135,18.1614815 C1.11276854,18.0149476 1.31159263,17.9323586 1.51910112,17.9318519 L8.42921348,17.9318519 C8.72982218,17.9123778 9.03057808,17.9676101 9.30449438,18.0925926 C9.55655856,18.2563515 9.78848088,18.4490265 9.99550562,18.6666667 C10.2861492,18.9908832 10.6490636,19.24257 11.0550562,19.4014815 C12.2184898,19.8057281 13.484881,19.8057281 14.6483146,19.4014815 C15.0477582,19.2579074 15.3325722,18.9029834 15.3853933,18.482963 C15.3097043,17.972135 14.9073456,17.571012 14.3949438,17.4955556 C13.1885597,17.1561518 11.9557897,16.9180362 10.7095506,16.7837037 C9.38583304,16.6122431 8.08207829,16.3123007 6.81685393,15.8881481 C5.74105508,15.5373576 4.73535245,15.0010759 3.84550562,14.3037037 C3.058938,13.6872322 2.42133072,12.9024804 1.97977528,12.0074074 C1.05489297,9.90451931 1.10544301,7.50236782 2.11797753,5.44 C2.67291293,4.40194198 3.46126601,3.50597976 4.42134831,2.82222222 C5.47935679,2.0554235 6.66447256,1.48023131 7.92247191,1.12296296 C9.3710179,0.629769346 10.8843428,0.35124437 12.4140449,0.296296296 Z" id="Path"></path>
            <path d="M91.65,61.0103704 C93.4318119,60.9794958 95.2064317,61.2433193 96.9016854,61.7911111 C98.293723,62.2492335 99.6009628,62.9318751 100.771348,63.8118519 C101.699073,64.5396642 102.48056,65.4356145 103.074719,66.4525926 C103.589142,67.2686377 103.890081,68.200261 103.95,69.1622222 C103.95702,69.3952616 103.865006,69.6204214 103.696629,69.7822222 C103.548533,69.9429585 103.339711,70.0345581 103.120787,70.0348148 L95.197191,70.0348148 C94.8895961,70.0469177 94.5830492,69.9920654 94.2988764,69.8740741 C94.0466291,69.6758678 93.8151162,69.4527593 93.6078652,69.2081481 C93.3812454,69.0028259 93.1250264,68.8325379 92.8477528,68.702963 C92.4275125,68.5185282 91.9705935,68.4321373 91.5117978,68.4503704 C90.9772336,68.4218305 90.4513236,68.5938647 90.0376404,68.9325926 C89.7782936,69.1516252 89.6201578,69.4669254 89.6,69.8051852 C89.6032554,69.9893432 89.668109,70.1671427 89.7842697,70.3103704 C89.9665987,70.514831 90.1957507,70.6723814 90.4522472,70.7696296 C90.8832484,70.944256 91.3308377,71.075043 91.7882022,71.16 C92.356367,71.2824691 93.1241573,71.397284 94.091573,71.5044444 C95.8019637,71.6894955 97.4909525,72.035482 99.1359551,72.5377778 C100.359897,72.90273 101.507169,73.486275 102.52191,74.26 C103.352866,74.9130266 104.002956,75.7666133 104.410674,76.74 C104.829874,77.8152956 105.033344,78.9621482 105.009551,80.1155556 C105.029702,81.4766719 104.67946,82.8177886 103.996067,83.9962963 C103.301546,85.1595793 102.357683,86.1554334 101.232022,86.9125926 C99.9641478,87.7595326 98.5626489,88.3882701 97.0859551,88.7725926 C95.3872697,89.2173604 93.6365385,89.4335989 91.8803371,89.4155556 C89.9535808,89.4473518 88.0315528,89.2155625 86.1679775,88.7266667 C84.7252814,88.3472544 83.3608326,87.7176493 82.1370787,86.8666667 C81.1772326,86.1542969 80.3900816,85.2361588 79.8337079,84.18 C79.3027833,83.2055449 79.0107411,82.1196519 78.9814607,81.0111111 C78.9744404,80.7780718 79.0664548,80.5529119 79.2348315,80.3911111 C79.3971307,80.2232516 79.6229843,80.1315198 79.8567416,80.1385185 L87.3657303,80.1385185 C87.6908846,80.1214457 88.0152469,80.1845415 88.3101124,80.3222222 C88.5869748,80.4984848 88.8420959,80.7065792 89.0702247,80.9422222 C89.3949248,81.2907541 89.7973463,81.5582111 90.2449438,81.722963 C91.5127054,82.163975 92.8929126,82.163975 94.1606742,81.722963 C94.5979448,81.5631936 94.9090538,81.1732864 94.9668539,80.7125926 C94.8895173,80.1515584 94.4470323,79.7104324 93.8842697,79.6333333 C92.5718324,79.2698318 91.2312082,79.0163564 89.8764045,78.8755556 C88.4355571,78.6923236 87.016092,78.3693104 85.6382022,77.9111111 C84.4708921,77.5286396 83.3795805,76.945804 82.4134831,76.1888889 C81.5446836,75.5056571 80.8435822,74.6339353 80.3634831,73.64 C79.3620712,71.3515217 79.4210379,68.7397608 80.5247191,66.4985185 C81.1143543,65.3658102 81.9576726,64.3836512 82.9893258,63.6281481 C84.1440827,62.7885776 85.4384919,62.1589082 86.8129213,61.7681481 C88.3802229,61.284478 90.0094342,61.0292454 91.65,61.0103704 L91.65,61.0103704 Z" id="Path"></path>
            <path d="M48.4848315,0.755555556 C49.0318416,0.755555556 49.4752809,1.19763291 49.4752809,1.74296296 L49.4752809,25.1651852 C49.4752809,25.7105152 49.0318416,26.1525926 48.4848315,26.1525926 L42.7494382,26.1525926 C42.3675113,26.1892961 41.9865485,26.073707 41.6898876,25.8311111 C41.5264494,25.6786652 41.3797436,25.5093171 41.2522472,25.3259259 L35.1022472,16.1407407 L35.1022472,25.3259259 C35.1022472,25.871256 34.6588079,26.3133333 34.1117978,26.3133333 L27.5241573,26.3133333 C26.9771472,26.3133333 26.5337079,25.871256 26.5337079,25.3259259 L26.5337079,1.9037037 C26.5337079,1.35837365 26.9771472,0.916296296 27.5241573,0.916296296 L33.2595506,0.916296296 C33.6414775,0.879592757 34.0224403,0.99518186 34.3191011,1.23777778 C34.4831921,1.38959704 34.629962,1.55901915 34.7567416,1.74296296 L40.9067416,11.7777778 L40.9067416,1.88074074 C40.8624376,1.57917015 40.9603152,1.27410342 41.171947,1.05414366 C41.3835788,0.83418389 41.6852434,0.723985951 41.9893258,0.755555556 L48.5769663,0.755555556 L48.4848315,0.755555556 Z" id="Path"></path>
            <path d="M75.641573,10.2392593 C75.641573,11.2802469 75.641573,12.3518519 75.641573,13.4540741 C75.641573,14.5562963 75.641573,15.6049383 75.641573,16.6 C75.6081197,18.0788293 75.2628064,19.5340793 74.6280899,20.8711111 C74.0415213,22.0637762 73.1909166,23.1080627 72.1404494,23.9251852 C71.0140578,24.7781793 69.7305945,25.4023361 68.3629213,25.7622222 C65.1751193,26.5827812 61.8304987,26.5827812 58.6426966,25.7622222 C57.2831119,25.399544 56.0077162,24.7755054 54.8882022,23.9251852 C53.8377351,23.1080627 52.9871304,22.0637762 52.4005618,20.8711111 C51.7658452,19.5340793 51.420532,18.0788293 51.3870787,16.6 C51.3870787,15.6049383 51.3870787,14.5562963 51.3870787,13.4540741 C51.3870787,12.3518519 51.3870787,11.2802469 51.3870787,10.2392593 C51.4257661,8.76846823 51.7709037,7.32177865 52.4005618,5.99111111 C52.9903567,4.7810646 53.8395829,3.71495313 54.8882022,2.86814815 C56.0021509,1.98817717 57.2774076,1.33300811 58.6426966,0.939259259 C61.8243738,0.0719591136 65.1812441,0.0719591136 68.3629213,0.939259259 C69.7363183,1.33024673 71.0196356,1.98553679 72.1404494,2.86814815 C73.1890688,3.71495313 74.038295,4.7810646 74.6280899,5.99111111 C75.257748,7.32177865 75.6028856,8.76846823 75.641573,10.2392593 Z M60.8078652,16.3933333 C60.7630332,17.2306802 61.0435036,18.0530596 61.5910112,18.6896296 C62.6891788,19.6349408 64.3164392,19.6349408 65.4146067,18.6896296 C65.9621144,18.0530596 66.2425848,17.2306802 66.1977528,16.3933333 C66.1977528,14.3419753 66.1977528,12.3135802 66.1977528,10.3081481 C66.2411407,9.46698638 65.9516623,8.64244533 65.391573,8.01185185 C64.3083749,7.07328242 62.697243,7.07328242 61.6140449,8.01185185 C61.0539557,8.64244533 60.7644772,9.46698638 60.8078652,10.3081481 C60.7310861,12.3135802 60.7310861,14.3419753 60.8078652,16.3933333 Z" id="Shape"></path>
            <path d="M19.1168539,40.0681481 L26.9252809,29.597037 C27.0977247,29.3518781 27.2903371,29.121453 27.5011236,28.9081481 C27.8477127,28.5648931 28.3269158,28.3888868 28.8140449,28.4259259 L35.7241573,28.4259259 C36.3677888,28.4381512 36.8866134,28.9553823 36.8988764,29.597037 L36.8988764,57.7725926 C36.8866134,58.4142473 36.3677888,58.9314784 35.7241573,58.9437037 L27.8005618,58.9437037 C27.1569303,58.9314784 26.6381057,58.4142473 26.6258427,57.7725926 L26.6258427,45.8088889 L23.7466292,50.5162963 C23.5737095,50.7746943 23.3728834,51.0134054 23.1477528,51.2281481 C22.8681332,51.4883355 22.4928542,51.6213583 22.111236,51.5955556 L16.0994382,51.5955556 C15.71782,51.6213583 15.3425409,51.4883355 15.0629213,51.2281481 C14.8368061,51.0143269 14.635883,50.7755006 14.4640449,50.5162963 L11.5848315,45.8088889 L11.5848315,57.7725926 C11.5725685,58.4142473 11.0537439,58.9314784 10.4101124,58.9437037 L2.48651685,58.9437037 C1.84288532,58.9314784 1.32406072,58.4142473 1.31179775,57.7725926 L1.31179775,29.597037 C1.32406072,28.9553823 1.84288532,28.4381512 2.48651685,28.4259259 L9.39662921,28.4259259 C9.88375833,28.3888868 10.3629615,28.5648931 10.7095506,28.9081481 C10.9196517,29.1220713 11.1122159,29.3524386 11.2853933,29.597037 L19.1168539,40.0681481 Z" id="Path"></path>
            <path d="M91.097191,16.3703704 L85.7533708,25.0733333 C85.608098,25.2775138 85.4463232,25.4695114 85.2696629,25.6474074 C84.9829273,25.9283063 84.5877159,26.070816 84.1870787,26.0377778 L78.4516854,26.0377778 C77.9046753,26.0377778 77.461236,25.5957004 77.461236,25.0503704 L77.461236,1.62814815 C77.461236,1.0828181 77.9046753,0.640740741 78.4516854,0.640740741 L85.0393258,0.640740741 C85.586336,0.640740741 86.0297753,1.0828181 86.0297753,1.62814815 L86.0297753,11.5481481 L88.3331461,7.64444444 C88.4720296,7.42842028 88.6342331,7.22821378 88.8168539,7.04740741 C89.0483056,6.83635145 89.356095,6.72854136 89.6691011,6.74888889 L92.202809,6.74888889 C92.5158151,6.72854136 92.8236045,6.83635145 93.0550562,7.04740741 C93.2383871,7.22757383 93.4006574,7.42786291 93.538764,7.64444444 L95.8421348,11.5481481 L95.8421348,1.62814815 C95.8421348,1.0828181 96.2855741,0.640740741 96.8325843,0.640740741 L103.420225,0.640740741 C103.967235,0.640740741 104.410674,1.0828181 104.410674,1.62814815 L104.410674,25.0503704 C104.410674,25.5957004 103.967235,26.0377778 103.420225,26.0377778 L97.6848315,26.0377778 C97.2846063,26.0677719 96.8906195,25.9257037 96.6022472,25.6474074 C96.4335479,25.4686294 96.2794964,25.2766565 96.141573,25.0733333 L91.097191,16.3703704 Z" id="Path"></path>
            <path d="M60.1859551,28.3111111 C60.6858613,28.2810652 61.1765012,28.4551634 61.5449438,28.7933333 C61.8307125,29.057219 62.0446854,29.3890436 62.1668539,29.7577778 L71.9331461,57.7037037 C71.9483212,57.8026349 71.9483212,57.9032911 71.9331461,58.0022222 C71.9331461,58.5348702 71.5000193,58.9666667 70.9657303,58.9666667 L62.8808989,58.9666667 C62.440866,59.0139233 62.0004092,58.8813636 61.6601124,58.5992593 C61.4526236,58.3967144 61.2881247,58.1546285 61.1764045,57.8874074 L60.1168539,55.017037 L50.7421348,55.017037 L49.6825843,57.8874074 C49.5677442,58.1529366 49.403632,58.3944535 49.1988764,58.5992593 C48.8585796,58.8813636 48.4181228,59.0139233 47.9780899,58.9666667 L39.8932584,58.9666667 C39.3589695,58.9666667 38.9258427,58.5348702 38.9258427,58.0022222 C38.9090901,57.9034168 38.9090901,57.8025091 38.9258427,57.7037037 L48.6921348,29.8725926 C48.8143033,29.5038584 49.0282763,29.1720338 49.3140449,28.9081481 C49.6824875,28.5699782 50.1731275,28.39588 50.6730337,28.4259259 L60.1629213,28.4259259 L60.1859551,28.3111111 Z M57.8825843,46.382963 L55.3949438,38.277037 L52.9533708,46.382963 L57.905618,46.382963 L57.8825843,46.382963 Z" id="Shape"></path>
            <path d="M103.466292,28.3111111 C104.109924,28.3233364 104.628748,28.8405675 104.641011,29.4822222 L104.641011,57.6577778 C104.628748,58.2994325 104.109924,58.8166636 103.466292,58.8288889 L96.5561798,58.8288889 C96.0988861,58.8694099 95.6439269,58.729218 95.2893258,58.4385185 C95.0907707,58.2515526 94.9131404,58.0436706 94.7595506,57.8185185 L84.2561798,46.6814815 L84.2561798,57.6348148 C84.2439168,58.2764695 83.7250922,58.7937006 83.0814607,58.8059259 L75.1578652,58.8059259 C74.5142336,58.7937006 73.995409,58.2764695 73.9831461,57.6348148 L73.9831461,29.597037 C73.995409,28.9553823 74.5142336,28.4381512 75.1578652,28.4259259 L82.0679775,28.4259259 C82.5252712,28.385405 82.9802304,28.5255968 83.3348315,28.8162963 C83.5342053,29.0024853 83.7119165,29.210462 83.8646067,29.4362963 L94.3679775,41.5148148 L94.3679775,29.597037 C94.3802405,28.9553823 94.8990651,28.4381512 95.5426966,28.4259259 L103.466292,28.4259259 L103.466292,28.3111111 Z" id="Path"></path>
            <path d="M19.3932584,80.2533333 C19.6803776,80.2533333 19.9557372,80.3670407 20.1587611,80.5694411 C20.361785,80.7718414 20.4758427,81.0463552 20.4758427,81.3325926 C20.4758427,81.7918519 18.1724719,88.2214815 18.1724719,88.2214815 C18.0824754,88.5023011 17.9332558,88.760676 17.7348315,88.9792593 C17.5370567,89.1867443 17.2618161,89.3031544 16.9747191,89.3007775 L2.27921348,89.3007775 C1.99209428,89.3007775 1.71673474,89.1870334 1.5137108,88.984633 C1.31068687,88.7822326 1.19662921,88.5077188 1.19662921,88.2214815 L1.19662921,62.4340741 C1.19662921,61.8380156 1.6813187,61.3548148 2.27921348,61.3548148 L10.2488764,61.3548148 C10.8467712,61.3548148 11.3314607,61.8380156 11.3314607,62.4340741 L11.3314607,80.2533333 L19.2780899,80.2533333 L19.3932584,80.2533333 Z" id="Path"></path>
            <path d="M39.847191,61.3777778 C40.3040897,61.3483217 40.7532798,61.5058846 41.0910112,61.8140741 C41.3479362,62.0523326 41.5384184,62.3530032 41.6438202,62.6866667 L50.5348315,87.9459259 C50.5490909,88.0372277 50.5490909,88.1301797 50.5348315,88.2214815 C50.5348315,88.7034011 50.1429549,89.0940741 49.6595506,89.0940741 L42.288764,89.0940741 C41.8887955,89.131794 41.4904021,89.0076785 41.1831461,88.7496296 C40.9929237,88.5599862 40.8439451,88.3332961 40.7455056,88.0837037 L39.7780899,85.4659259 L31.2095506,85.4659259 L30.2421348,88.0837037 C30.1419931,88.3324146 29.9932263,88.5587823 29.8044944,88.7496296 C29.4972383,89.0076785 29.098845,89.131794 28.6988764,89.0940741 L21.2589888,89.0940741 C20.7755845,89.0940741 20.3837079,88.7034011 20.3837079,88.2214815 C20.3677955,88.1303146 20.3677955,88.0370928 20.3837079,87.9459259 L29.2747191,62.6866667 C29.3801209,62.3530032 29.5706031,62.0523326 29.8275281,61.8140741 C30.1652595,61.5058846 30.6144497,61.3483217 31.0713483,61.3777778 L39.7320225,61.3777778 L39.847191,61.3777778 Z M37.7741573,77.8422222 L35.4707865,70.4481481 L33.1674157,77.8422222 L37.7741573,77.8422222 Z" id="Shape"></path>
            <path d="M52.8382022,89.0940741 C52.551083,89.0940741 52.2757235,88.9803667 52.0726996,88.7779664 C51.8696756,88.575566 51.755618,88.3010522 51.755618,88.0148148 L51.755618,62.3192593 C51.755618,62.0330219 51.8696756,61.7585081 52.0726996,61.5561077 C52.2757235,61.3537073 52.551083,61.24 52.8382022,61.24 L66.0825843,61.24 C69.0356812,61.0016472 71.9864507,61.7269995 74.4898876,63.3066667 C76.3360569,64.8575013 77.3216919,67.1986711 77.138764,69.5985185 C77.1444663,70.2029336 77.035039,70.8029352 76.8162921,71.3666667 C76.6176502,71.8774198 76.3461263,72.3569278 76.0101124,72.7903704 C75.7061654,73.1876231 75.3584868,73.5496388 74.9735955,73.8696296 C74.6537724,74.135521 74.3062819,74.3664698 73.9370787,74.5585185 C74.4624061,74.7841262 74.9513983,75.085906 75.3882022,75.4540741 C75.8550618,75.8394941 76.2659213,76.287733 76.6089888,76.7859259 C76.9606322,77.2962294 77.2396878,77.8526264 77.4382022,78.4392593 C77.6385407,79.0468719 77.7396421,79.6826298 77.7376404,80.3222222 C77.9321756,82.8704134 76.8446461,85.3485603 74.8353933,86.9355556 C72.3484806,88.5190505 69.4184556,89.2674125 66.4741573,89.0711111 L52.8382022,89.0711111 L52.8382022,89.0940741 Z M66.658427,69.92 C66.6572832,69.4800031 66.5293626,69.0495972 66.2898876,68.68 C66.007614,68.2664929 65.5227187,68.0379737 65.0230337,68.082963 L61.6831461,68.082963 L61.6831461,71.7111111 L65.0230337,71.7111111 C65.5182001,71.7611253 66.0020968,71.5418479 66.2898876,71.137037 C66.5496774,70.7815168 66.7015791,70.3590924 66.7275281,69.92 L66.658427,69.92 Z M61.6831461,82.2511111 L65.391573,82.2511111 C65.9486571,82.3066402 66.4931102,82.0615134 66.8196629,81.6081481 C67.0884909,81.2241971 67.2331577,80.7674926 67.2342697,80.2992593 C67.2244837,79.8181546 67.0633394,79.3522714 66.7735955,78.9674074 C66.4451234,78.5443335 65.9270376,78.3119109 65.391573,78.3474074 L61.6831461,78.3474074 L61.6831461,82.2511111 L61.6831461,82.2511111 Z" id="Shape"></path>
        </g>
    </g>
</svg>