<?xml version="1.0" encoding="utf-8"?>
<!-- Generator: Adobe Illustrator 24.0.1, SVG Export Plug-In . SVG Version: 6.00 Build 0)  -->
<svg version="1.1" xmlns="http://www.w3.org/2000/svg" xmlns:xlink="http://www.w3.org/1999/xlink" x="0px" y="0px"
	 viewBox="0 0 276 277" style="enable-background:new 0 0 276 277;" xml:space="preserve">
<g id="background">
</g>
<g id="objects">
	<g>
		<g>
			<path d="M-1239,841.3V841c-0.3,0.4-0.7,0.7-1,1c-0.3,0.3-0.7,0.4-1.1,0.6c-0.4,0.1-0.8,0.2-1.3,0.2c-0.6,0-1.2-0.1-1.7-0.4
				c-0.5-0.3-1-0.6-1.4-1.1c-0.4-0.5-0.7-1.1-0.9-1.7c-0.2-0.7-0.3-1.4-0.3-2.1c0-1.6,0.4-2.9,1.2-3.8c0.8-0.9,1.8-1.4,3.1-1.4
				c0.7,0,1.4,0.1,1.9,0.4c0.5,0.3,1,0.7,1.5,1.2V830c0-0.5,0.1-0.9,0.3-1.2c0.2-0.3,0.5-0.4,0.9-0.4c0.4,0,0.7,0.1,0.9,0.4
				c0.2,0.3,0.3,0.6,0.3,1.1v11.4c0,0.5-0.1,0.9-0.3,1.1c-0.2,0.2-0.5,0.4-0.9,0.4c-0.4,0-0.6-0.1-0.9-0.4
				C-1238.9,842.1-1239,841.8-1239,841.3z M-1244.1,837.5c0,0.7,0.1,1.3,0.3,1.8c0.2,0.5,0.5,0.9,0.9,1.1c0.4,0.3,0.8,0.4,1.2,0.4
				c0.5,0,0.9-0.1,1.2-0.4c0.4-0.2,0.7-0.6,0.9-1.1c0.2-0.5,0.3-1.1,0.3-1.8c0-0.7-0.1-1.3-0.3-1.8c-0.2-0.5-0.5-0.9-0.9-1.1
				c-0.4-0.3-0.8-0.4-1.3-0.4c-0.5,0-0.9,0.1-1.3,0.4c-0.4,0.3-0.7,0.7-0.9,1.2C-1244,836.2-1244.1,836.8-1244.1,837.5z"/>
			<path d="M-1227.5,838.1h-5.1c0,0.6,0.1,1.1,0.4,1.6c0.2,0.4,0.5,0.8,0.9,1c0.4,0.2,0.8,0.3,1.3,0.3c0.3,0,0.6,0,0.9-0.1
				c0.3-0.1,0.5-0.2,0.7-0.3c0.2-0.2,0.5-0.3,0.7-0.5c0.2-0.2,0.5-0.4,0.8-0.7c0.1-0.1,0.3-0.2,0.6-0.2c0.3,0,0.5,0.1,0.6,0.2
				c0.2,0.1,0.2,0.3,0.2,0.6c0,0.2-0.1,0.5-0.3,0.8c-0.2,0.3-0.5,0.6-0.8,0.9c-0.4,0.3-0.8,0.5-1.4,0.7c-0.6,0.2-1.2,0.3-1.9,0.3
				c-1.7,0-3-0.5-3.9-1.4c-0.9-0.9-1.4-2.2-1.4-3.9c0-0.8,0.1-1.5,0.3-2.1c0.2-0.7,0.6-1.2,1-1.7c0.4-0.5,1-0.8,1.6-1.1
				c0.6-0.3,1.3-0.4,2.1-0.4c1,0,1.9,0.2,2.6,0.6c0.7,0.4,1.3,1,1.6,1.7c0.4,0.7,0.5,1.4,0.5,2.1c0,0.7-0.2,1.1-0.6,1.3
				C-1226.3,838-1226.9,838.1-1227.5,838.1z M-1232.6,836.7h4.7c-0.1-0.9-0.3-1.6-0.7-2c-0.4-0.4-1-0.7-1.6-0.7
				c-0.6,0-1.2,0.2-1.6,0.7C-1232.3,835.1-1232.5,835.8-1232.6,836.7z"/>
			<path d="M-1215.7,839.4c0,0.7-0.2,1.3-0.5,1.8c-0.3,0.5-0.9,0.9-1.5,1.2c-0.7,0.3-1.5,0.4-2.5,0.4c-0.9,0-1.7-0.1-2.4-0.4
				c-0.7-0.3-1.2-0.6-1.5-1.1c-0.3-0.4-0.5-0.9-0.5-1.3c0-0.3,0.1-0.5,0.3-0.7c0.2-0.2,0.5-0.3,0.8-0.3c0.3,0,0.5,0.1,0.6,0.2
				s0.3,0.3,0.4,0.6c0.3,0.5,0.6,0.8,1,1c0.4,0.2,0.9,0.3,1.5,0.3c0.5,0,0.9-0.1,1.3-0.3c0.3-0.2,0.5-0.5,0.5-0.8
				c0-0.5-0.2-0.8-0.5-1c-0.3-0.2-0.9-0.4-1.7-0.6c-0.9-0.2-1.6-0.5-2.2-0.7c-0.6-0.2-1-0.6-1.3-1c-0.3-0.4-0.5-0.9-0.5-1.5
				c0-0.5,0.2-1,0.5-1.5c0.3-0.5,0.8-0.8,1.4-1.1c0.6-0.3,1.3-0.4,2.2-0.4c0.7,0,1.3,0.1,1.8,0.2c0.5,0.1,1,0.3,1.3,0.6
				c0.4,0.2,0.6,0.5,0.8,0.8c0.2,0.3,0.3,0.6,0.3,0.8c0,0.3-0.1,0.5-0.3,0.7c-0.2,0.2-0.5,0.3-0.9,0.3c-0.3,0-0.5-0.1-0.7-0.2
				c-0.2-0.2-0.4-0.4-0.6-0.7c-0.2-0.3-0.4-0.5-0.7-0.6c-0.3-0.2-0.6-0.2-1.1-0.2c-0.5,0-0.9,0.1-1.2,0.3c-0.3,0.2-0.5,0.4-0.5,0.7
				c0,0.3,0.1,0.5,0.3,0.7c0.2,0.2,0.5,0.3,0.9,0.4c0.4,0.1,0.9,0.3,1.6,0.4c0.8,0.2,1.5,0.4,2,0.7c0.5,0.3,0.9,0.6,1.2,1
				C-1215.9,838.5-1215.7,838.9-1215.7,839.4z"/>
			<path d="M-1213.1,831c-0.4,0-0.7-0.1-0.9-0.3s-0.4-0.5-0.4-0.9c0-0.4,0.1-0.7,0.4-0.9c0.3-0.2,0.6-0.4,0.9-0.4
				c0.3,0,0.6,0.1,0.9,0.3c0.3,0.2,0.4,0.5,0.4,0.9c0,0.4-0.1,0.7-0.4,0.9C-1212.4,830.9-1212.7,831-1213.1,831z M-1211.8,833.7v7.5
				c0,0.5-0.1,0.9-0.4,1.2c-0.2,0.3-0.6,0.4-0.9,0.4s-0.7-0.1-0.9-0.4c-0.2-0.3-0.4-0.7-0.4-1.2v-7.4c0-0.5,0.1-0.9,0.4-1.2
				c0.2-0.3,0.5-0.4,0.9-0.4s0.7,0.1,0.9,0.4C-1211.9,832.9-1211.8,833.2-1211.8,833.7z"/>
			<path d="M-1200.4,834.1v7.5c0,0.9-0.1,1.6-0.3,2.2c-0.2,0.6-0.5,1.1-0.9,1.5c-0.4,0.4-0.9,0.7-1.6,0.9c-0.7,0.2-1.5,0.3-2.4,0.3
				c-0.9,0-1.7-0.1-2.4-0.4c-0.7-0.3-1.2-0.6-1.6-1c-0.4-0.4-0.6-0.8-0.6-1.2c0-0.3,0.1-0.6,0.3-0.8c0.2-0.2,0.5-0.3,0.8-0.3
				c0.4,0,0.7,0.2,1,0.5c0.1,0.2,0.3,0.3,0.4,0.5c0.1,0.2,0.3,0.3,0.5,0.4c0.2,0.1,0.4,0.2,0.7,0.3c0.3,0.1,0.5,0.1,0.9,0.1
				c0.7,0,1.2-0.1,1.6-0.3c0.4-0.2,0.6-0.4,0.8-0.8c0.1-0.3,0.2-0.7,0.3-1.1c0-0.4,0-1,0.1-1.8c-0.4,0.6-0.9,1-1.4,1.3
				c-0.5,0.3-1.1,0.4-1.9,0.4c-0.9,0-1.6-0.2-2.3-0.7c-0.6-0.4-1.1-1.1-1.5-1.9c-0.3-0.8-0.5-1.7-0.5-2.8c0-0.8,0.1-1.5,0.3-2.1
				c0.2-0.6,0.5-1.2,0.9-1.6c0.4-0.4,0.8-0.8,1.4-1c0.5-0.2,1.1-0.3,1.7-0.3c0.7,0,1.4,0.1,1.9,0.4c0.5,0.3,1,0.7,1.5,1.3v-0.4
				c0-0.4,0.1-0.8,0.3-1c0.2-0.2,0.5-0.4,0.9-0.4c0.5,0,0.8,0.2,1,0.5C-1200.5,833-1200.4,833.5-1200.4,834.1z M-1208,837.4
				c0,1.1,0.2,1.8,0.7,2.4c0.5,0.5,1.1,0.8,1.8,0.8c0.4,0,0.8-0.1,1.2-0.3c0.4-0.2,0.7-0.6,0.9-1c0.2-0.5,0.4-1,0.4-1.7
				c0-1.1-0.2-1.9-0.7-2.5c-0.5-0.6-1.1-0.9-1.8-0.9c-0.7,0-1.3,0.3-1.8,0.8C-1207.7,835.6-1208,836.4-1208,837.4z"/>
			<path d="M-1196.3,833.7v0.3c0.5-0.6,1-1,1.5-1.3c0.5-0.3,1.2-0.4,1.9-0.4c0.7,0,1.3,0.2,1.8,0.4c0.5,0.3,0.9,0.7,1.2,1.3
				c0.2,0.3,0.3,0.7,0.3,1c0.1,0.4,0.1,0.8,0.1,1.4v4.8c0,0.5-0.1,0.9-0.4,1.2c-0.2,0.3-0.5,0.4-0.9,0.4c-0.4,0-0.7-0.1-0.9-0.4
				c-0.2-0.3-0.4-0.7-0.4-1.2v-4.3c0-0.9-0.1-1.5-0.4-2c-0.2-0.5-0.7-0.7-1.4-0.7c-0.5,0-0.9,0.1-1.3,0.4c-0.4,0.3-0.7,0.7-0.8,1.1
				c-0.1,0.4-0.2,1.1-0.2,2.2v3.2c0,0.5-0.1,0.9-0.4,1.2c-0.2,0.3-0.6,0.4-0.9,0.4c-0.4,0-0.7-0.1-0.9-0.4c-0.2-0.3-0.4-0.7-0.4-1.2
				v-7.5c0-0.5,0.1-0.9,0.3-1.1c0.2-0.2,0.5-0.4,0.9-0.4c0.2,0,0.4,0.1,0.6,0.2c0.2,0.1,0.3,0.3,0.4,0.5S-1196.3,833.3-1196.3,833.7
				z"/>
			<path d="M-1180.5,838.1h-5.1c0,0.6,0.1,1.1,0.4,1.6c0.2,0.4,0.5,0.8,0.9,1c0.4,0.2,0.8,0.3,1.3,0.3c0.3,0,0.6,0,0.9-0.1
				c0.3-0.1,0.5-0.2,0.7-0.3c0.2-0.2,0.5-0.3,0.7-0.5c0.2-0.2,0.5-0.4,0.8-0.7c0.1-0.1,0.3-0.2,0.6-0.2c0.3,0,0.5,0.1,0.6,0.2
				c0.2,0.1,0.2,0.3,0.2,0.6c0,0.2-0.1,0.5-0.3,0.8c-0.2,0.3-0.5,0.6-0.8,0.9c-0.4,0.3-0.8,0.5-1.4,0.7c-0.6,0.2-1.2,0.3-1.9,0.3
				c-1.7,0-3-0.5-3.9-1.4c-0.9-0.9-1.4-2.2-1.4-3.9c0-0.8,0.1-1.5,0.3-2.1c0.2-0.7,0.6-1.2,1-1.7c0.4-0.5,1-0.8,1.6-1.1
				s1.3-0.4,2.1-0.4c1,0,1.9,0.2,2.6,0.6c0.7,0.4,1.3,1,1.6,1.7c0.4,0.7,0.5,1.4,0.5,2.1c0,0.7-0.2,1.1-0.6,1.3
				C-1179.3,838-1179.9,838.1-1180.5,838.1z M-1185.6,836.7h4.7c-0.1-0.9-0.3-1.6-0.7-2c-0.4-0.4-1-0.7-1.6-0.7
				c-0.6,0-1.2,0.2-1.6,0.7C-1185.3,835.1-1185.5,835.8-1185.6,836.7z"/>
			<path d="M-1170,841.3V841c-0.3,0.4-0.7,0.7-1,1c-0.3,0.3-0.7,0.4-1.1,0.6c-0.4,0.1-0.8,0.2-1.3,0.2c-0.6,0-1.2-0.1-1.7-0.4
				c-0.5-0.3-1-0.6-1.4-1.1c-0.4-0.5-0.7-1.1-0.9-1.7c-0.2-0.7-0.3-1.4-0.3-2.1c0-1.6,0.4-2.9,1.2-3.8c0.8-0.9,1.8-1.4,3.1-1.4
				c0.7,0,1.4,0.1,1.9,0.4s1,0.7,1.5,1.2V830c0-0.5,0.1-0.9,0.3-1.2c0.2-0.3,0.5-0.4,0.9-0.4c0.4,0,0.7,0.1,0.9,0.4
				c0.2,0.3,0.3,0.6,0.3,1.1v11.4c0,0.5-0.1,0.9-0.3,1.1c-0.2,0.2-0.5,0.4-0.9,0.4c-0.4,0-0.6-0.1-0.9-0.4
				C-1169.9,842.1-1170,841.8-1170,841.3z M-1175.1,837.5c0,0.7,0.1,1.3,0.3,1.8c0.2,0.5,0.5,0.9,0.9,1.1c0.4,0.3,0.8,0.4,1.2,0.4
				c0.5,0,0.9-0.1,1.2-0.4c0.4-0.2,0.7-0.6,0.9-1.1c0.2-0.5,0.3-1.1,0.3-1.8c0-0.7-0.1-1.3-0.3-1.8c-0.2-0.5-0.5-0.9-0.9-1.1
				c-0.4-0.3-0.8-0.4-1.3-0.4c-0.5,0-0.9,0.1-1.3,0.4c-0.4,0.3-0.7,0.7-0.9,1.2S-1175.1,836.8-1175.1,837.5z"/>
			<path d="M-1159.4,829.9v4c0.5-0.5,1-0.9,1.5-1.2c0.5-0.3,1.1-0.4,1.9-0.4c0.9,0,1.6,0.2,2.3,0.6c0.6,0.4,1.2,1,1.5,1.8
				c0.4,0.8,0.5,1.7,0.5,2.8c0,0.8-0.1,1.5-0.3,2.2c-0.2,0.7-0.5,1.2-0.9,1.7c-0.4,0.5-0.8,0.9-1.4,1.1c-0.5,0.3-1.1,0.4-1.8,0.4
				c-0.4,0-0.8,0-1.1-0.1c-0.4-0.1-0.7-0.2-0.9-0.4c-0.2-0.2-0.5-0.3-0.6-0.5c-0.2-0.2-0.4-0.4-0.7-0.7v0.3c0,0.5-0.1,0.9-0.4,1.1
				c-0.2,0.3-0.5,0.4-0.9,0.4c-0.4,0-0.7-0.1-0.9-0.4c-0.2-0.3-0.3-0.6-0.3-1.1V830c0-0.5,0.1-0.9,0.3-1.2c0.2-0.3,0.5-0.4,0.9-0.4
				c0.4,0,0.7,0.1,0.9,0.4C-1159.5,829-1159.4,829.4-1159.4,829.9z M-1159.3,837.6c0,1,0.2,1.8,0.7,2.4c0.5,0.6,1.1,0.8,1.9,0.8
				c0.7,0,1.2-0.3,1.7-0.9c0.5-0.6,0.7-1.4,0.7-2.4c0-0.7-0.1-1.3-0.3-1.8c-0.2-0.5-0.5-0.9-0.8-1.1c-0.4-0.3-0.8-0.4-1.3-0.4
				c-0.5,0-0.9,0.1-1.3,0.4c-0.4,0.3-0.7,0.7-0.9,1.2C-1159.1,836.2-1159.3,836.9-1159.3,837.6z"/>
			<path d="M-1148.3,843.1l0.2-0.6l-3.2-8c-0.2-0.5-0.3-0.8-0.3-1c0-0.2,0.1-0.4,0.2-0.6c0.1-0.2,0.3-0.3,0.5-0.5
				c0.2-0.1,0.4-0.2,0.6-0.2c0.4,0,0.7,0.1,0.8,0.4c0.2,0.2,0.4,0.6,0.5,1l2.2,6.4l2.1-5.9c0.2-0.5,0.3-0.9,0.4-1.1
				c0.1-0.3,0.3-0.5,0.4-0.5c0.1-0.1,0.4-0.1,0.6-0.1c0.2,0,0.4,0.1,0.6,0.2c0.2,0.1,0.3,0.2,0.4,0.4c0.1,0.2,0.1,0.4,0.1,0.6
				c0,0.1-0.1,0.3-0.1,0.5c-0.1,0.2-0.1,0.4-0.2,0.7l-3.4,8.9c-0.3,0.8-0.6,1.4-0.9,1.8c-0.3,0.4-0.6,0.8-1.1,1
				c-0.5,0.2-1.1,0.4-1.9,0.4c-0.8,0-1.3-0.1-1.7-0.2c-0.4-0.2-0.6-0.5-0.6-0.9c0-0.3,0.1-0.5,0.3-0.7c0.2-0.2,0.4-0.2,0.8-0.2
				c0.1,0,0.3,0,0.4,0.1c0.2,0,0.3,0.1,0.4,0.1c0.3,0,0.5,0,0.7-0.1c0.2-0.1,0.3-0.2,0.5-0.5
				C-1148.7,843.8-1148.5,843.5-1148.3,843.1z"/>
		</g>
		<g>
			<path d="M-1110.8,832.4h0.6v-0.8c0-0.8,0.1-1.5,0.3-1.9c0.2-0.5,0.6-0.8,1-1c0.5-0.2,1.2-0.3,2-0.3c1.5,0,2.3,0.4,2.3,1.1
				c0,0.2-0.1,0.4-0.2,0.6c-0.2,0.2-0.3,0.3-0.6,0.3c-0.1,0-0.3,0-0.5-0.1c-0.2,0-0.5-0.1-0.6-0.1c-0.5,0-0.8,0.1-0.9,0.4
				c-0.1,0.3-0.2,0.7-0.2,1.2v0.6h0.6c1,0,1.5,0.3,1.5,0.9c0,0.4-0.1,0.7-0.4,0.8c-0.3,0.1-0.6,0.2-1.1,0.2h-0.6v6.9
				c0,0.5-0.1,0.9-0.4,1.2c-0.2,0.3-0.6,0.4-0.9,0.4c-0.4,0-0.7-0.1-0.9-0.4c-0.2-0.3-0.4-0.7-0.4-1.2v-6.9h-0.7
				c-0.4,0-0.7-0.1-0.9-0.3c-0.2-0.2-0.3-0.4-0.3-0.7C-1112.1,832.8-1111.6,832.4-1110.8,832.4"/>
			<path d="M-1102.3,839v2.2c0,0.5-0.1,0.9-0.4,1.2c-0.2,0.3-0.6,0.4-0.9,0.4c-0.4,0-0.7-0.1-0.9-0.4c-0.2-0.3-0.4-0.7-0.4-1.2V834
				c0-1.2,0.4-1.7,1.3-1.7c0.4,0,0.7,0.1,0.9,0.4c0.2,0.3,0.3,0.7,0.3,1.2c0.3-0.5,0.6-0.9,0.9-1.2c0.3-0.3,0.8-0.4,1.3-0.4
				c0.5,0,1.1,0.1,1.6,0.4c0.5,0.3,0.8,0.6,0.8,1.1c0,0.3-0.1,0.6-0.3,0.8c-0.2,0.2-0.5,0.3-0.7,0.3c-0.1,0-0.3-0.1-0.7-0.2
				c-0.4-0.1-0.7-0.2-1-0.2c-0.4,0-0.7,0.1-0.9,0.3c-0.2,0.2-0.4,0.5-0.6,0.9c-0.1,0.4-0.2,0.9-0.3,1.4
				C-1102.3,837.6-1102.3,838.2-1102.3,839"/>
			<path d="M-1090.4,838.1h-5.1c0,0.6,0.1,1.1,0.4,1.6c0.2,0.4,0.5,0.8,0.9,1c0.4,0.2,0.8,0.3,1.3,0.3c0.3,0,0.6,0,0.8-0.1
				c0.3-0.1,0.5-0.2,0.7-0.3c0.2-0.2,0.5-0.3,0.7-0.5c0.2-0.2,0.5-0.4,0.8-0.7c0.1-0.1,0.3-0.2,0.6-0.2c0.3,0,0.5,0.1,0.6,0.2
				c0.2,0.1,0.2,0.3,0.2,0.6c0,0.2-0.1,0.5-0.3,0.8c-0.2,0.3-0.5,0.6-0.8,0.9c-0.4,0.3-0.8,0.5-1.4,0.7c-0.6,0.2-1.2,0.3-1.9,0.3
				c-1.7,0-3-0.5-3.9-1.4c-0.9-1-1.4-2.2-1.4-3.9c0-0.8,0.1-1.5,0.3-2.1c0.2-0.7,0.6-1.2,1-1.7c0.4-0.5,1-0.8,1.6-1.1
				c0.6-0.3,1.3-0.4,2.1-0.4c1,0,1.9,0.2,2.6,0.6c0.7,0.4,1.3,1,1.6,1.7c0.4,0.7,0.5,1.4,0.5,2.1c0,0.6-0.2,1.1-0.6,1.3
				C-1089.2,838-1089.7,838.1-1090.4,838.1 M-1095.4,836.7h4.7c-0.1-0.9-0.3-1.5-0.7-2c-0.4-0.4-1-0.7-1.6-0.7
				c-0.6,0-1.2,0.2-1.6,0.7C-1095.1,835.1-1095.3,835.8-1095.4,836.7"/>
			<path d="M-1079.6,838.1h-5.1c0,0.6,0.1,1.1,0.4,1.6c0.2,0.4,0.5,0.8,0.9,1c0.4,0.2,0.8,0.3,1.3,0.3c0.3,0,0.6,0,0.8-0.1
				c0.3-0.1,0.5-0.2,0.8-0.3c0.2-0.2,0.5-0.3,0.7-0.5c0.2-0.2,0.5-0.4,0.8-0.7c0.1-0.1,0.3-0.2,0.6-0.2c0.3,0,0.5,0.1,0.7,0.2
				c0.2,0.1,0.2,0.3,0.2,0.6c0,0.2-0.1,0.5-0.3,0.8c-0.2,0.3-0.5,0.6-0.8,0.9c-0.4,0.3-0.8,0.5-1.4,0.7c-0.6,0.2-1.2,0.3-1.9,0.3
				c-1.7,0-3-0.5-3.9-1.4c-0.9-1-1.4-2.2-1.4-3.9c0-0.8,0.1-1.5,0.3-2.1c0.2-0.7,0.6-1.2,1-1.7c0.4-0.5,1-0.8,1.6-1.1
				c0.6-0.3,1.4-0.4,2.1-0.4c1,0,1.9,0.2,2.6,0.6c0.7,0.4,1.3,1,1.6,1.7c0.4,0.7,0.5,1.4,0.5,2.1c0,0.6-0.2,1.1-0.6,1.3
				C-1078.4,838-1078.9,838.1-1079.6,838.1 M-1084.6,836.7h4.7c-0.1-0.9-0.3-1.5-0.7-2c-0.4-0.4-1-0.7-1.6-0.7
				c-0.6,0-1.2,0.2-1.6,0.7C-1084.3,835.1-1084.6,835.8-1084.6,836.7"/>
			<path d="M-1073.9,833.7v0.3c0.5-0.6,1-1,1.5-1.3c0.5-0.3,1.1-0.4,1.8-0.4c0.8,0,1.5,0.2,2.2,0.6c0.7,0.4,1.2,1,1.6,1.8
				c0.4,0.8,0.6,1.7,0.6,2.8c0,0.8-0.1,1.5-0.3,2.2c-0.2,0.7-0.5,1.2-0.9,1.7c-0.4,0.4-0.9,0.8-1.4,1c-0.5,0.2-1.1,0.4-1.7,0.4
				c-0.7,0-1.4-0.1-1.9-0.4c-0.5-0.3-1-0.7-1.4-1.3v3.9c0,1.1-0.4,1.7-1.2,1.7c-0.5,0-0.8-0.1-1-0.4c-0.2-0.3-0.2-0.7-0.2-1.3v-11.2
				c0-0.5,0.1-0.9,0.3-1.1c0.2-0.2,0.5-0.4,0.9-0.4c0.4,0,0.7,0.1,0.9,0.4C-1074,832.8-1073.9,833.2-1073.9,833.7 M-1068.8,837.4
				c0-0.7-0.1-1.3-0.3-1.8c-0.2-0.5-0.5-0.9-0.9-1.1c-0.4-0.3-0.8-0.4-1.2-0.4c-0.7,0-1.3,0.3-1.8,0.8c-0.5,0.6-0.7,1.4-0.7,2.5
				c0,1,0.2,1.8,0.7,2.4c0.5,0.6,1.1,0.9,1.8,0.9c0.4,0,0.8-0.1,1.2-0.4c0.4-0.3,0.7-0.6,0.9-1.1
				C-1068.9,838.8-1068.8,838.2-1068.8,837.4"/>
			<path d="M-1063.6,831c-0.4,0-0.7-0.1-0.9-0.3c-0.3-0.2-0.4-0.5-0.4-0.9c0-0.4,0.1-0.7,0.4-0.9c0.3-0.2,0.6-0.4,0.9-0.4
				c0.3,0,0.6,0.1,0.9,0.3c0.3,0.2,0.4,0.5,0.4,0.9c0,0.4-0.1,0.7-0.4,0.9C-1062.9,830.9-1063.2,831-1063.6,831 M-1062.3,833.7v7.5
				c0,0.5-0.1,0.9-0.4,1.2c-0.3,0.3-0.6,0.4-0.9,0.4s-0.7-0.1-0.9-0.4c-0.2-0.3-0.4-0.7-0.4-1.2v-7.4c0-0.5,0.1-0.9,0.4-1.2
				c0.2-0.3,0.5-0.4,0.9-0.4s0.7,0.1,0.9,0.4C-1062.4,832.9-1062.3,833.2-1062.3,833.7"/>
			<path d="M-1053.9,841.6l-2.3-3.8l-1.4,1.3v2.1c0,0.5-0.1,0.9-0.4,1.1c-0.3,0.3-0.6,0.4-0.9,0.4c-0.4,0-0.7-0.1-0.9-0.4
				c-0.2-0.3-0.3-0.7-0.3-1.2v-11.1c0-0.6,0.1-1,0.3-1.3c0.2-0.3,0.5-0.5,1-0.5c0.4,0,0.7,0.1,0.9,0.4c0.2,0.3,0.4,0.7,0.4,1.2v6.3
				l2.9-3.1c0.4-0.4,0.6-0.6,0.8-0.8c0.2-0.1,0.4-0.2,0.7-0.2c0.3,0,0.6,0.1,0.8,0.3c0.2,0.2,0.3,0.5,0.3,0.8c0,0.4-0.4,0.9-1.1,1.5
				l-1.4,1.3l2.7,4.2c0.2,0.3,0.3,0.5,0.4,0.7c0.1,0.2,0.1,0.3,0.1,0.5c0,0.4-0.1,0.7-0.3,1c-0.2,0.2-0.5,0.4-0.9,0.4
				c-0.3,0-0.6-0.1-0.7-0.3C-1053.4,842.3-1053.7,842-1053.9,841.6"/>
			<path d="M-1048.3,842.8c-0.4,0-0.7-0.1-1-0.4c-0.3-0.2-0.4-0.6-0.4-1.1c0-0.4,0.1-0.7,0.4-1c0.3-0.3,0.6-0.4,1-0.4
				c0.4,0,0.7,0.1,1,0.4c0.3,0.3,0.4,0.6,0.4,1c0,0.5-0.1,0.8-0.4,1.1C-1047.6,842.6-1047.9,842.8-1048.3,842.8"/>
			<path d="M-1035.4,839.6c0,0.3-0.1,0.7-0.3,1c-0.2,0.4-0.5,0.7-0.9,1.1c-0.4,0.3-0.9,0.6-1.5,0.8c-0.6,0.2-1.3,0.3-2,0.3
				c-1.6,0-2.9-0.5-3.8-1.4c-0.9-0.9-1.3-2.2-1.3-3.8c0-1.1,0.2-2,0.6-2.8c0.4-0.8,1-1.4,1.8-1.9c0.8-0.4,1.7-0.7,2.8-0.7
				c0.7,0,1.3,0.1,1.9,0.3c0.6,0.2,1,0.5,1.4,0.8c0.4,0.3,0.7,0.6,0.9,1c0.2,0.4,0.3,0.7,0.3,1c0,0.3-0.1,0.6-0.3,0.8
				c-0.2,0.2-0.5,0.3-0.8,0.3c-0.2,0-0.4-0.1-0.5-0.2c-0.1-0.1-0.3-0.3-0.5-0.5c-0.3-0.5-0.6-0.8-1-1.1c-0.3-0.2-0.8-0.4-1.3-0.4
				c-0.8,0-1.4,0.3-1.9,0.9c-0.5,0.6-0.7,1.4-0.7,2.5c0,0.5,0.1,0.9,0.2,1.3c0.1,0.4,0.3,0.8,0.5,1c0.2,0.3,0.5,0.5,0.8,0.7
				c0.3,0.2,0.7,0.2,1.1,0.2c0.5,0,1-0.1,1.3-0.4c0.4-0.2,0.7-0.6,1-1.1c0.2-0.3,0.3-0.5,0.5-0.7c0.2-0.2,0.4-0.3,0.7-0.3
				c0.3,0,0.6,0.1,0.8,0.4C-1035.5,839-1035.4,839.3-1035.4,839.6"/>
			<path d="M-1024.2,837.5c0,0.8-0.1,1.5-0.4,2.1c-0.2,0.7-0.6,1.2-1,1.7c-0.5,0.5-1,0.8-1.6,1.1c-0.6,0.2-1.3,0.4-2.1,0.4
				c-0.8,0-1.5-0.1-2.1-0.4c-0.6-0.2-1.2-0.6-1.6-1.1c-0.5-0.5-0.8-1-1.1-1.7c-0.2-0.6-0.3-1.4-0.3-2.1c0-0.8,0.1-1.5,0.4-2.2
				c0.2-0.7,0.6-1.2,1-1.7c0.5-0.5,1-0.8,1.6-1.1c0.6-0.2,1.3-0.4,2.1-0.4c0.8,0,1.5,0.1,2.1,0.4c0.6,0.3,1.2,0.6,1.6,1.1
				c0.5,0.5,0.8,1,1,1.7C-1024.3,836-1024.2,836.7-1024.2,837.5 M-1026.8,837.5c0-1.1-0.2-1.9-0.7-2.5c-0.5-0.6-1.1-0.9-1.9-0.9
				c-0.5,0-1,0.1-1.3,0.4s-0.7,0.6-0.9,1.2c-0.2,0.5-0.3,1.1-0.3,1.8c0,0.7,0.1,1.3,0.3,1.8c0.2,0.5,0.5,0.9,0.9,1.2
				c0.4,0.3,0.8,0.4,1.4,0.4c0.8,0,1.4-0.3,1.9-0.9C-1027.1,839.4-1026.8,838.5-1026.8,837.5"/>
			<path d="M-1014.3,837.7v3.4c0,0.5-0.1,1-0.4,1.2c-0.3,0.3-0.6,0.4-1,0.4c-0.4,0-0.7-0.1-1-0.4c-0.2-0.3-0.4-0.7-0.4-1.2V837
				c0-0.7,0-1.2-0.1-1.5c0-0.4-0.2-0.7-0.4-0.9c-0.2-0.2-0.5-0.4-0.9-0.4c-0.8,0-1.4,0.3-1.7,0.9c-0.3,0.6-0.4,1.4-0.4,2.5v3.5
				c0,0.5-0.1,0.9-0.4,1.2c-0.3,0.3-0.6,0.4-1,0.4c-0.4,0-0.7-0.1-1-0.4c-0.3-0.3-0.4-0.7-0.4-1.2v-7.4c0-0.5,0.1-0.9,0.3-1.1
				c0.2-0.3,0.5-0.4,0.9-0.4c0.4,0,0.7,0.1,0.9,0.4c0.2,0.2,0.4,0.6,0.4,1v0.2c0.5-0.5,0.9-0.9,1.4-1.2c0.5-0.3,1.1-0.4,1.7-0.4
				c0.7,0,1.2,0.1,1.7,0.4c0.5,0.3,0.9,0.7,1.2,1.2c0.4-0.5,0.9-0.9,1.4-1.2c0.5-0.3,1.1-0.4,1.7-0.4c0.7,0,1.3,0.1,1.8,0.4
				c0.5,0.3,0.9,0.7,1.1,1.2c0.2,0.5,0.3,1.2,0.3,2.2v5.1c0,0.5-0.1,1-0.4,1.2c-0.2,0.3-0.6,0.4-1,0.4c-0.4,0-0.7-0.1-1-0.4
				c-0.3-0.3-0.4-0.7-0.4-1.2v-4.4c0-0.6,0-1-0.1-1.3c0-0.3-0.2-0.6-0.4-0.8c-0.2-0.2-0.5-0.3-1-0.3c-0.3,0-0.7,0.1-1,0.3
				c-0.3,0.2-0.5,0.5-0.7,0.8C-1014.2,835.8-1014.3,836.6-1014.3,837.7"/>
		</g>
		<g>
			<path d="M-1135,836.9C-1135,836.9-1135,836.9-1135,836.9C-1135,836.9-1135,836.9-1135,836.9z"/>
			<path d="M-1134.9,837.7C-1134.9,837.7-1134.9,837.7-1134.9,837.7c0-0.2-0.1-0.5-0.1-0.7C-1135,837.2-1134.9,837.5-1134.9,837.7z"
				/>
			<path d="M-1134,840.1C-1134,840.1-1134.1,840.1-1134,840.1C-1134.1,840.1-1134,840.1-1134,840.1z"/>
			<path d="M-1134.1,839.9c0,0,0-0.1-0.1-0.1C-1134.2,839.9-1134.1,839.9-1134.1,839.9z"/>
			<path d="M-1134.7,838.6c0.1,0.4,0.3,0.8,0.5,1.2C-1134.4,839.4-1134.5,839-1134.7,838.6C-1134.7,838.6-1134.7,838.6-1134.7,838.6
				z"/>
			<path d="M-1125,826.9c0.5,0,0.9,0,1.3,0.1l0.1-0.8c0,0-1.2-0.4-2.7-0.2l-0.1-0.4c0.5-0.1,0.8-0.5,0.8-1c0-0.6-0.5-1.1-1.1-1.1
				s-1.1,0.5-1.1,1.1c0,0.5,0.4,0.9,0.8,1l0.1,0.5c-1.6,0.2-2.9,0.9-2.9,0.9l0.2,0.7c1-0.3,1.8-0.5,2.6-0.6
				C-1126,827-1125.5,826.9-1125,826.9z"/>
			<path d="M-1134.1,830.8L-1134.1,830.8c0-0.1,0.1-0.1,0.1-0.2l-0.3-0.2l-0.5-0.4c0,0-0.8,0.7-1.4,2c0,0-0.1-0.1-0.1-0.1
				c-0.2-0.2-0.4-0.3-0.8-0.3c0,0,0,0,0,0c-0.2,0-0.3-0.1-0.4-0.1c0.1-0.1,0.1-0.3,0.1-0.4c0-0.4-0.3-0.7-0.7-0.7
				c-0.4,0-0.7,0.3-0.7,0.7c0,0.4,0.3,0.7,0.7,0.7c0.1,0,0.1,0,0.2,0c0.2,0.2,0.4,0.3,0.8,0.3c0.2,0,0.3,0,0.4,0.2
				c0.1,0.1,0.1,0.3,0.2,0.4c0,0,0,0,0,0c-0.4,1.2-0.3,2.7-0.3,2.7l1.1,0c0-0.5,0.1-1.5,0.4-2.2
				C-1134.7,831.7-1134.1,830.8-1134.1,830.8z"/>
			<path d="M-1115.8,827.8c-0.4,0-0.7,0.3-0.7,0.7c0,0.1,0,0.1,0,0.2c-0.2,0.2-0.3,0.4-0.3,0.8c0,0.2,0,0.3-0.2,0.4
				c-0.1,0.1-0.2,0.1-0.3,0.1c-0.8-1.1-1.8-1.8-1.8-1.8l-0.8,0.8c0.6,0.5,1.2,1.2,1.7,2c0.4,0.6,0.8,1.3,1.1,2l1-0.5
				c0,0-0.5-1.2-1.1-2.2c0.1,0,0.2-0.1,0.3-0.2c0.2-0.2,0.3-0.4,0.3-0.8c0-0.2,0.1-0.3,0.1-0.4c0.1,0.1,0.3,0.1,0.4,0.1
				c0.4,0,0.7-0.3,0.7-0.7C-1115.1,828.1-1115.4,827.8-1115.8,827.8z"/>
			<path d="M-1118.5,837c-1.4,0.7-3.7,1.6-6.8,2c-1.2,0.2-2.4,0.2-3.4,0.2c-1.4,0-2.6-0.1-3.6-0.2c-1.1-0.1-1.9-0.3-2.4-0.4
				c0.1,0.4,0.3,0.8,0.5,1.2c0,0,0,0,0,0c0,0,0,0.1,0.1,0.1c0,0,0,0.1,0.1,0.1c0,0,0,0,0,0c0.3,0.6,0.7,1.1,1.1,1.5
				c1.4,1.6,2.9,1.8,2.9,1.8l0,0l0,0c0,0,1.3,0.4,3.3,0.4c1.9,0,3.9-0.4,5.7-1.2c1.3-0.7,2.6-1.7,3.3-2.7c0.5-0.7,0.8-1.5,1.1-2.3
				c0.1-0.4,0.2-1.1,0.1-1.8C-1117,836.2-1117.6,836.6-1118.5,837z"/>
			<path d="M-1133.6,831.1c0,0.1-0.7,0.9-1.1,2.3c-0.4,1-0.3,2.4-0.3,2.5v0c0,0.3,0,0.7,0.1,1c0,0,0,0,0,0c0,0,0,0.1,0,0.1
				c0,0.2,0.1,0.5,0.1,0.7c0.7,0.2,4.9,1.2,9.5,0.5c2.9-0.4,5.1-1.3,6.5-1.9c1.1-0.5,1.8-1,2.1-1.2c-0.3-1-1-2.6-1.7-3.6
				c-2-2.9-4.2-3.6-5.3-3.8c-0.4-0.1-0.8-0.1-1.2-0.1c-0.4,0-1,0-1.7,0.1c-0.7,0.1-1.6,0.3-2.5,0.6c-1.3,0.5-2.6,1.2-3.5,2l0,0
				C-1133,830.4-1133.3,830.7-1133.6,831.1z M-1121.3,830.5c1,0,1.7,0.8,1.7,1.7c0,1-0.8,1.7-1.7,1.7s-1.7-0.8-1.7-1.7
				C-1123.1,831.2-1122.3,830.5-1121.3,830.5z M-1129.6,830.4c1.6,0,2.8,1.3,2.8,2.8c0,1.6-1.3,2.8-2.8,2.8c-1.6,0-2.8-1.3-2.8-2.8
				C-1132.4,831.6-1131.1,830.4-1129.6,830.4z"/>
		</g>
	</g>
	<g>
		<path style="fill:#FF4661;stroke:#821C1A;stroke-width:2;stroke-linecap:round;stroke-linejoin:round;stroke-miterlimit:10;" d="
			M-1398,210.1c0,0,1.4-8,8.2-8.1c6.7,0,5.9,9.3,5.9,9.3s0.8-9.5,7.7-10.6c5.2-0.8,6.4,7.7,6.4,7.7s1.6,15.1-12.7,16.1
			C-1396.8,225.7-1398,210.1-1398,210.1z"/>
		<path style="fill:none;stroke:#821C1A;stroke-width:2;stroke-linecap:round;stroke-linejoin:round;stroke-miterlimit:10;" d="
			M-1427.5,185.8c0,0,12.6,28.5,45.8,25.3c27.7-2.7,31.5-23.8,31.5-23.8"/>
		<path style="fill:none;stroke:#821C1A;stroke-width:2;stroke-linecap:round;stroke-linejoin:round;stroke-miterlimit:10;" d="
			M-1353.5,183.7c0,0,3.1,5.1,8.2,5.9"/>
		<path style="fill:none;stroke:#821C1A;stroke-width:2;stroke-linecap:round;stroke-linejoin:round;stroke-miterlimit:10;" d="
			M-1431.4,189.7c0,0,4.7-3,7-10.5"/>
	</g>
	<g>
		<g>
			<path style="fill:#FF7BAC;" d="M-1227.7,227.8c0.4,0.1,15.3-14,30.2-1.5l0.9,0c-3,8.5-7.5,16.5-13.6,16.5
				c-9,0-14.6-6.8-18.1-14.8L-1227.7,227.8z"/>
			<path style="fill:#821C1A;" d="M-1191.7,205l0.1,1.8c-0.3,2-1.9,11-5,19.5l-0.9,0c-14.9-12.5-29.8,1.6-30.2,1.5l-0.6,0.3
				c-5-11.4-5.7-25.3-5.7-25.3l0-0.1c9.5,0.5,17.8-5,21.3-10.5C-1212.7,192.1-1206.4,205.8-1191.7,205z"/>
			<path style="fill:none;stroke:#821C1A;stroke-width:2;stroke-linecap:round;stroke-linejoin:round;stroke-miterlimit:10;" d="
				M-1234,202.8c0,0,0.7,13.9,5.7,25.3c3.5,8,9.1,14.8,18.1,14.8c6.1,0,10.6-8,13.6-16.5c3-8.5,4.6-17.5,5-19.5
				c0.1-0.3,0.1-0.4,0.1-0.4"/>
			<path style="fill:none;stroke:#821C1A;stroke-width:2;stroke-linecap:round;stroke-linejoin:round;stroke-miterlimit:10;" d="
				M-1227.7,227.8c0.4,0.1,15.3-14,30.2-1.5"/>
		</g>
		<path style="fill:#FFFFFF;stroke:#821C1A;stroke-width:2;stroke-linecap:round;stroke-linejoin:round;stroke-miterlimit:10;" d="
			M-1195.1,205.8c0,0,0.6,6,2.8,6.5s3.9-7.7,3.9-7.7S-1192.7,205.3-1195.1,205.8z"/>
		<path style="fill:#FFFFFF;stroke:#821C1A;stroke-width:2;stroke-linecap:round;stroke-linejoin:round;stroke-miterlimit:10;" d="
			M-1238.3,202c0,0,0.9,7.1,4.4,7s2.2-6.3,2.2-6.3L-1238.3,202z"/>
		<path style="fill:none;stroke:#821C1A;stroke-width:2;stroke-linecap:round;stroke-linejoin:round;stroke-miterlimit:10;" d="
			M-1249.2,175.5c-1.1,0.8-10.4,14.3,3.2,23.1c4,2.6,8.1,3.8,12,4c9.5,0.5,17.8-5,21.3-10.5c0,0,6.3,13.7,21,12.9
			c3.1-0.2,6.6-1,10.5-2.8c22.2-10,2.7-25.3,2.7-25.3"/>
	</g>
	<g>
		<path style="fill:none;stroke:#821C1A;stroke-width:2;stroke-linecap:round;stroke-linejoin:round;stroke-miterlimit:10;" d="
			M-1439.5,277.3c0,0,3.3,12.5-9.7,23.6"/>
		<path style="fill:none;stroke:#821C1A;stroke-width:2;stroke-linecap:round;stroke-linejoin:round;stroke-miterlimit:10;" d="
			M-1317.7,282.1c-0.2,0.6-0.2,11.7,10.7,17.2"/>
		<path style="fill:none;stroke:#821C1A;stroke-width:2;stroke-linecap:round;stroke-linejoin:round;stroke-miterlimit:10;" d="
			M-1441.3,290.7c0,0,27.6,31.5,73.4,30.1c35.9-1,52.1-28.5,52.1-28.5"/>
		<path style="fill:none;stroke:#821C1A;stroke-width:2;stroke-linecap:round;stroke-linejoin:round;stroke-miterlimit:10;" d="
			M-1444.2,295.6c0,0,14.2,65.2,72.7,66.9c43.5,1.3,59.2-66.9,59.2-66.9"/>
		<path style="fill:none;stroke:#821C1A;stroke-width:2;stroke-linecap:round;stroke-linejoin:round;stroke-miterlimit:10;" d="
			M-1417,327.5c0,0,5.2,13.4,6.7,11.9c1.5-1.5,4.5-7.3,4.5-7.3s27.6,11.3,56.2,2.6c0,0,4.1,6.6,6.8,5.6c2.8-1,5.5-7.9,5.5-7.9"/>
	</g>
	<g>
		<path style="fill:#FF4661;stroke:#821C1A;stroke-width:2;stroke-linecap:round;stroke-linejoin:round;stroke-miterlimit:10;" d="
			M-1210,302c0,0,3.7-16.3,11.7-17c8.1-0.7,13.3,12.4,16.1,17c4.1,6.9,12.1,11.3,12.8,14.9c0.2,1.2-2.3,35.1-38,40.3
			s-36-32.3-23.4-38.9c0,0-7.7-29,7.6-33.2C-1223.2,285.2-1214.3,284.9-1210,302"/>
		<path style="fill:none;stroke:#821C1A;stroke-width:2;stroke-linecap:round;stroke-linejoin:round;stroke-miterlimit:10;" d="
			M-1243.6,310c0,0,18.6,16.1,42.7,16.4c24.1,0.3,47.4-20.7,47.4-20.7"/>
		<path style="fill:none;stroke:#821C1A;stroke-width:2;stroke-linecap:round;stroke-linejoin:round;stroke-miterlimit:10;" d="
			M-1155.1,298.9c0,0,2.1,11.3,6.5,14.3"/>
		<path style="fill:none;stroke:#821C1A;stroke-width:2;stroke-linecap:round;stroke-linejoin:round;stroke-miterlimit:10;" d="
			M-1243.5,303.8c0,0,1.7,6.3-2,10.4"/>
	</g>
	<g>
		<path style="fill:#FFA3AC;" d="M-1035.5,226.9c0,0,27.8-15.8,45.2,2.6c-1.5,16.5-11.6,27.1-43.6,26.6
			c-21.7-0.3-34.4-10.3-39.6-24.1l0.5,0C-1073.1,232.1-1060.3,212.6-1035.5,226.9z"/>
		<path style="fill:#FF7BAC;" d="M-991.8,206.8c0.1,0.6,0.2,1.2,0.3,1.8c-11.3-22.7-40.3-19.6-40.3-19.6l0.3,14
			c0,0,9.3,12.9-3.9,11.9c-13.2-0.9-5.1-11.3-5.1-11.3l-1.2-14.3c-17.2-2.2-31.4,5.3-31.4,5.3c6.6-21.9,22.2-40.9,39.1-40.9
			C-1011.7,153.7-996.9,173.9-991.8,206.8z"/>
		<path style="fill:#821C1A;" d="M-991.6,208.5c1.1,7.7,1.8,14.8,1.2,21.1c-17.4-18.5-45.2-2.6-45.2-2.6
			c-24.8-14.3-37.5,5.2-37.5,5.2l-0.5,0c-1.9-5-2.8-10.4-2.8-16.1c0-7.1,1.2-14.4,3.3-21.4c0,0,14.2-7.5,31.4-5.3l1.2,14.3
			c0,0-8.1,10.3,5.1,11.3c13.2,0.9,3.9-11.9,3.9-11.9l-0.3-14C-1031.9,188.9-1002.9,185.8-991.6,208.5z"/>
		<path style="fill:none;stroke:#821C1A;stroke-width:2;stroke-linecap:round;stroke-linejoin:round;stroke-miterlimit:10;" d="
			M-1073.1,194.6c0,0,14.2-7.5,31.4-5.3l1.2,14.3c0,0-8.1,10.3,5.1,11.3c13.2,0.9,3.9-11.9,3.9-11.9l-0.3-14c0,0,29-3.1,40.3,19.6"
			/>
		<path style="fill:none;stroke:#821C1A;stroke-width:2;stroke-linecap:round;stroke-linejoin:round;stroke-miterlimit:10;" d="
			M-1073.1,232.1c0,0,12.8-19.5,37.5-5.2c0,0,27.8-15.8,45.2,2.6"/>
		<path style="fill:#FFFFFF;stroke:#821C1A;stroke-width:2;stroke-linecap:round;stroke-linejoin:round;stroke-miterlimit:10;" d="
			M-1032.9,153.8c0,0-3.2,11.9,5,11.8c8.2-0.1,7.7-8.9,7.7-8.9s-1.8,12.2,5.8,13.4c0,0,5.7,0.7,5.7-4.8
			C-1008.7,165.3-1017.7,154.4-1032.9,153.8z"/>
		<path style="fill:#FFFFFF;stroke:#821C1A;stroke-width:2;stroke-linecap:round;stroke-linejoin:round;stroke-miterlimit:10;" d="
			M-1034,153.7c0,0,1.3,10.5-5,10.8c-6.3,0.3-8-7.1-8-7.1s1.7,10.6-4.5,11.6s-6.6-1.9-6.6-1.9S-1050.8,156.2-1034,153.7z"/>
		<path style="fill:#FFFFFF;stroke:#821C1A;stroke-width:2;stroke-linecap:round;stroke-linejoin:round;stroke-miterlimit:10;" d="
			M-1068.2,241.6c0,0,4-7.4,13-5.6c9,1.8,1.5,16.5,1.6,16.5s5.5-14.7,12.4-14.1c6.8,0.6,4.8,16.8,4.8,16.8s1.4-16.9,8.6-16.8
			c7.2,0.1,6.8,17.3,6.8,17.3s2-19.8,10-20c8.1-0.2,13.1,8.7,13.1,10c0,0-2.6,8.7-29.9,10.5C-1055.3,258-1068.2,241.6-1068.2,241.6z
			"/>
		<path style="fill:none;stroke:#821C1A;stroke-width:2;stroke-linecap:round;stroke-linejoin:round;stroke-miterlimit:10;" d="
			M-1073.1,194.6c6.6-21.9,22.2-40.9,39.1-40.9c22.3,0,37.1,20.2,42.2,53c0.1,0.6,0.2,1.2,0.3,1.8c1.1,7.7,1.8,14.8,1.2,21.1
			c-1.5,16.5-11.6,27.1-43.6,26.6c-21.7-0.3-34.4-10.3-39.6-24.1c-1.9-5-2.8-10.4-2.8-16.1C-1076.4,208.9-1075.2,201.6-1073.1,194.6
			z"/>
	</g>
	<g>
		<path style="fill:#FFA3AC;stroke:#821C1A;stroke-width:2;stroke-linecap:round;stroke-linejoin:round;stroke-miterlimit:10;" d="
			M-887.9,192.5c0,0-15.6,39.5,9.8,40.4c25.4,0.9,9.9-32.5,14.8-37.5"/>
		<path style="fill:none;stroke:#821C1A;stroke-width:2;stroke-linecap:round;stroke-linejoin:round;stroke-miterlimit:10;" d="
			M-921.4,185.9c0,0,3.9-12.3,11.8-12.7"/>
		<path style="fill:none;stroke:#821C1A;stroke-width:2;stroke-linecap:round;stroke-linejoin:round;stroke-miterlimit:10;" d="
			M-835.1,178c0,0,5.6,3,7.4,14.5"/>
		<path style="fill:none;stroke:#821C1A;stroke-width:2;stroke-linecap:round;stroke-linejoin:round;stroke-miterlimit:10;" d="
			M-917.3,178c0,0,38.1,31.7,87.6,7.3"/>
		<path style="fill:none;stroke:#821C1A;stroke-width:2;stroke-linecap:round;stroke-linejoin:round;stroke-miterlimit:10;" d="
			M-877.8,194.5c0,0-1.5,9.4,0.7,17.1"/>
		<path style="fill:#BDCCD4;stroke:#821C1A;stroke-width:2;stroke-linecap:round;stroke-linejoin:round;stroke-miterlimit:10;" d="
			M-898.9,235.4c0,0-12,8-7.8,9.6C-902.6,246.6-898.9,235.4-898.9,235.4z"/>
		<path style="fill:#BDCCD4;stroke:#821C1A;stroke-width:2;stroke-linecap:round;stroke-linejoin:round;stroke-miterlimit:10;" d="
			M-889.2,240.3c-0.2,1.1-2.3,11.9,0.1,11.7C-886.7,251.8-889.2,240.3-889.2,240.3z"/>
	</g>
	<g>
		<g id="XMLID_1_">
			<g>
				<path style="fill:#821C1A;" d="M-878,349.1c-6.6-0.5-15.5-0.9-16,0.7c-0.8,2.5-0.3,9.1-0.3,9.1c-19.2-13.7-16.5-40.8-16.5-40.8
					s3.6,2.8,9.9,5.9c0,0,0.2,19.6,8.5,22.3C-888,347.7-882.4,348.6-878,349.1z"/>
				<path style="fill:#FFFFFF;" d="M-878,349.1c-4.4-0.5-10-1.4-14.3-2.8c-8.3-2.7-8.5-22.3-8.5-22.3c16.1,8.1,49.8,18.8,86-6.6
					c0,0,14.1,43.6-43.6,49c-16.7,1.5-28.1-1.8-35.8-7.4c0,0-0.5-6.6,0.3-9.1C-893.5,348.2-884.6,348.6-878,349.1z M-871.1,349.8
					c-0.7-0.1-3.5-0.4-6.9-0.6C-874.5,349.5-871.7,349.7-871.1,349.8z"/>
			</g>
			<g>
				<path style="fill:none;stroke:#821C1A;stroke-width:2;stroke-linecap:round;stroke-linejoin:round;stroke-miterlimit:10;" d="
					M-894.3,358.9c-19.2-13.7-16.5-40.8-16.5-40.8s3.6,2.8,9.9,5.9c16.1,8.1,49.8,18.8,86-6.6c0,0,14.1,43.6-43.6,49
					C-875.1,367.8-886.5,364.5-894.3,358.9z"/>
				<path style="fill:none;stroke:#821C1A;stroke-width:2;stroke-linecap:round;stroke-linejoin:round;stroke-miterlimit:10;" d="
					M-878,349.1c-6.6-0.5-15.5-0.9-16,0.7c-0.8,2.5-0.3,9.1-0.3,9.1"/>
				<path style="fill:none;stroke:#821C1A;stroke-width:2;stroke-linecap:round;stroke-linejoin:round;stroke-miterlimit:10;" d="
					M-870.9,349.8c0,0,0,0-0.1,0c-0.7-0.1-3.5-0.4-6.9-0.6"/>
				<path style="fill:none;stroke:#821C1A;stroke-width:2;stroke-linecap:round;stroke-linejoin:round;stroke-miterlimit:10;" d="
					M-878,349.1c3.5,0.4,6.3,0.6,6.9,0.6"/>
				<path style="fill:none;stroke:#821C1A;stroke-width:2;stroke-linecap:round;stroke-linejoin:round;stroke-miterlimit:10;" d="
					M-878,349.1C-878,349.1-878,349.1-878,349.1"/>
				<path style="fill:none;stroke:#821C1A;stroke-width:2;stroke-linecap:round;stroke-linejoin:round;stroke-miterlimit:10;" d="
					M-900.8,324c0,0,0.2,19.6,8.5,22.3c4.3,1.4,9.9,2.3,14.3,2.8"/>
			</g>
		</g>
		<path style="fill:#FCFFA0;stroke:#821C1A;stroke-width:2;stroke-linecap:round;stroke-linejoin:round;stroke-miterlimit:10;" d="
			M-823.4,333.8c0,0,1.1,11.3-11.3,10.1c0,0,11,4.2,12.8,12.5c0,0,2.9-11.4,8.7-12.2C-813.1,344.1-821.3,341.2-823.4,333.8z"/>
	</g>
	<g>
		<path style="fill:none;stroke:#821C1A;stroke-width:2;stroke-linecap:round;stroke-linejoin:round;stroke-miterlimit:10;" d="
			M-1053.5,353.7c0,0-28.3-10.9-10.9-25.9c17.4-15,85.7,23,86,22.9"/>
		<path style="fill:none;stroke:#821C1A;stroke-width:2;stroke-linecap:round;stroke-linejoin:round;stroke-miterlimit:10;" d="
			M-1001.7,339.3c0,0,2.3-9.6,5.2-8.2c2.9,1.4,11.1-0.3,5.2,13.1"/>
		<path style="fill:none;stroke:#821C1A;stroke-width:2;stroke-linecap:round;stroke-linejoin:round;stroke-miterlimit:10;" d="
			M-1013.3,333.6c0,0,2.4-5,3.8-4.6c1.3,0.3,2.6,6.3,2.9,7.3"/>
		<path style="fill:none;stroke:#821C1A;stroke-width:2;stroke-linecap:round;stroke-linejoin:round;stroke-miterlimit:10;" d="
			M-1024.3,330.2c0,0-0.3-5.4,1.8-5.9c2.1-0.5,7.5-0.5,4.8,8.3"/>
		<path style="fill:none;stroke:#821C1A;stroke-width:2;stroke-linecap:round;stroke-linejoin:round;stroke-miterlimit:10;" d="
			M-1043.3,323.9c0,0,3.8-8.4,4.7-7.6c0.9,0.8,6.2,2.5,8.1,2.1c1.9-0.4,0.5,10,0.5,10"/>
		<path style="fill:none;stroke:#821C1A;stroke-width:2;stroke-linecap:round;stroke-linejoin:round;stroke-miterlimit:10;" d="
			M-1061,325.7c0,0-12.3-20.2-9.1-20.7c3.2-0.5,10.8-1.3,10.8-1.3l1.5,5.4c0,0,2.8-4.6,3.9-4.9c1.1-0.3,6.9,0,6.9,0l-0.3,19.1"/>
	</g>
	<g>
		<path style="fill:none;stroke:#821C1A;stroke-width:2;stroke-linecap:round;stroke-linejoin:round;stroke-miterlimit:10;" d="
			M-850.4,439.8c0,0,3.1-5.8,10-7"/>
		<path style="fill:none;stroke:#821C1A;stroke-width:2;stroke-linecap:round;stroke-linejoin:round;stroke-miterlimit:10;" d="
			M-786.2,432.7c0,0,6,0.8,8.5,6.4"/>
		<path style="fill:none;stroke:#821C1A;stroke-width:2;stroke-linecap:round;stroke-linejoin:round;stroke-miterlimit:10;" d="
			M-846.9,435.9c0,0,6.7,26.1,36.9,26.3c23.8,0.1,28.1-27.8,28.1-27.8"/>
		<path style="fill:none;stroke:#821C1A;stroke-width:2;stroke-linecap:round;stroke-linejoin:round;stroke-miterlimit:10;" d="
			M-822.9,470.6c0,0,9.3,5.6,22.3-1"/>
	</g>
	<g>
		<path style="fill:none;stroke:#821C1A;stroke-width:2;stroke-linecap:round;stroke-linejoin:round;stroke-miterlimit:10;" d="
			M-944.6,455.1c8.1-0.8,14.3,2.9,32.7,16.9c18.4,14,33-13.3,27.7-27.6c-5.3-14.3-20.8-39.5-58.6-37.1
			c-37.7,2.4-52.9,28.1-50.8,41.9c2.1,13.8,13.2,24.3,26,21.4C-954.8,467.8-955.9,456.1-944.6,455.1z"/>
		<path style="fill:none;stroke:#821C1A;stroke-width:2;stroke-linecap:round;stroke-linejoin:round;stroke-miterlimit:10;" d="
			M-900.9,441.9c0,0-6.6,4.5-7.8,5c-1.1,0.6-3.2-9.7-3.2-9.7s-19.1-15.3-56.9,1.6c0,0-1.9,8-3.8,8.1c-1.9,0.1-7.6-5.3-7.6-5.3"/>
		<path style="fill:none;stroke:#821C1A;stroke-width:2;stroke-linecap:round;stroke-linejoin:round;stroke-miterlimit:10;" d="
			M-948.5,473c0,0,6.3-7.3,14.3-2.8"/>
	</g>
	<g>
		<path style="fill:none;stroke:#821C1A;stroke-width:2;stroke-linecap:round;stroke-linejoin:round;stroke-miterlimit:10;" d="
			M-1140.1,442c6.2-0.1,5,9.9,12.6,9.8c3.6-0.1,7.7-10.1,12.3-10.2c3.9-0.1,8.2,9.9,12.6,9.8c4,0,8.1-10.1,12.3-10.1
			c4.1,0,8.4,9.9,12.5,9.9c4.2,0,8.4-10.1,12.4-10.1c4.4,0,8.6,10,12.5,10c4.6,0,9-10,12.5-9.9c7.6,0.1,7.3,5.4,7.3,5.8"/>
		<path style="fill:none;stroke:#821C1A;stroke-width:2;stroke-linecap:round;stroke-linejoin:round;stroke-miterlimit:10;" d="
			M-1093,462.3c0,0,9.5-4.3,16.3-1.8"/>
		<path style="fill:none;stroke:#821C1A;stroke-width:2;stroke-linecap:round;stroke-linejoin:round;stroke-miterlimit:10;" d="
			M-1086.1,466.2c0,0,4.3-1.6,7.3,0"/>
	</g>
	<g>
		<path style="fill:#821C1A;stroke:#821C1A;stroke-width:2;stroke-linecap:round;stroke-linejoin:round;stroke-miterlimit:10;" d="
			M-1231.3,425.7c10.6-0.9,19.5-1.4,26.2-3.7s15.5-9.5,24-5.8s-2,46-45.3,50.5s-75.7-30.8-57.2-46.3
			C-1265,405-1246.1,426.9-1231.3,425.7z"/>
		<path style="fill:#FFFFFF;stroke:#821C1A;stroke-width:2;stroke-linecap:round;stroke-linejoin:round;stroke-miterlimit:10;" d="
			M-1232.8,425.7c2,14-5.1,11.9-12,12c-7,0.1-3.6-16.8-4.7-17.3l12,4.6L-1232.8,425.7z"/>
		<path style="fill:#FFFFFF;stroke:#821C1A;stroke-width:2;stroke-linecap:round;stroke-linejoin:round;stroke-miterlimit:10;" d="
			M-1224.2,425.7c0,0-1.5,10.9,4.9,11.2s12.7,1.2,10.7-13.4L-1224.2,425.7z"/>
		<path style="fill:#FFA3AC;stroke:#821C1A;stroke-width:2;stroke-linecap:round;stroke-linejoin:round;stroke-miterlimit:10;" d="
			M-1228.1,471.3c0.4-6-0.2-17.8-13.1-18c-12.9-0.2-11.7,11.3-11.7,11.3s8.9,6.8,6.2,19.5S-1250,515-1228,513
			c22-2,25.1-22.7,22.6-35.6c-2.5-12.9-18.8-28.6-27.7-21.7"/>
	</g>
	<g>
		<path style="fill:#821C1A;stroke:#821C1A;stroke-width:2;stroke-linecap:round;stroke-linejoin:round;stroke-miterlimit:10;" d="
			M-1461.2,434.7c0,0,24.1,18,63.9,11.9c39.8-6.1,46.8-13.6,46.8-13.6s1.2,51.5-48.9,55.5C-1440.8,491.8-1460.5,447.1-1461.2,434.7z
			"/>
		<path style="fill:#FFA3AC;stroke:#821C1A;stroke-width:2;stroke-linecap:round;stroke-linejoin:round;stroke-miterlimit:10;" d="
			M-1418.9,486c0,0,22.1-14.4,47.3-7.2C-1371.6,478.8-1393,493.8-1418.9,486z"/>
		<path style="fill:#FFFFFF;stroke:#821C1A;stroke-width:2;stroke-linecap:round;stroke-linejoin:round;stroke-miterlimit:10;" d="
			M-1421.5,447.5c0,0-2.8,16.8,0.2,17.8c3.1,0.9,14.8,0,14.8,0l0.7-17.7L-1421.5,447.5z"/>
		<path style="fill:#FFFFFF;stroke:#821C1A;stroke-width:2;stroke-linecap:round;stroke-linejoin:round;stroke-miterlimit:10;" d="
			M-1397.3,446.6c0,0,2.1,17.8,4.8,17.5c2.7-0.4,13.3-3.2,13.3-3.2l-2.2-16.3L-1397.3,446.6z"/>
	</g>
	<g>
		
			<line style="fill:none;stroke:#821C1A;stroke-width:2;stroke-linecap:round;stroke-linejoin:round;stroke-miterlimit:10;" x1="-1451.3" y1="560.5" x2="-1371.6" y2="555.5"/>
		
			<line style="fill:none;stroke:#821C1A;stroke-width:2;stroke-linecap:round;stroke-linejoin:round;stroke-miterlimit:10;" x1="-1371.6" y1="550.5" x2="-1370.3" y2="558.8"/>
		<path style="fill:none;stroke:#821C1A;stroke-width:2;stroke-linecap:round;stroke-linejoin:round;stroke-miterlimit:10;" d="
			M-1450.8,555.6c-0.8,0.7-1,10.2-1,10.2"/>
		<path style="fill:none;stroke:#821C1A;stroke-width:2;stroke-linecap:round;stroke-linejoin:round;stroke-miterlimit:10;" d="
			M-1430.6,560.4c0,0,0.2,10.2,2.9,10.1c2.7,0,4.9-0.5,4.9-0.5l0.5-10.5"/>
		<path style="fill:none;stroke:#821C1A;stroke-width:2;stroke-linecap:round;stroke-linejoin:round;stroke-miterlimit:10;" d="
			M-1401.5,558c0,0,0.8,10.1,2.3,9.6s6.8-1.8,6.8-1.8l-0.9-7.7"/>
		<path style="fill:none;stroke:#821C1A;stroke-width:2;stroke-linecap:round;stroke-linejoin:round;stroke-miterlimit:10;" d="
			M-1414.3,580.2c0,0,5.6-3.9,10.7-2.4"/>
	</g>
	<g id="XMLID_2_">
		<g>
			<path style="fill:#821C1A;" d="M-1050,534c2.7,1.5,5.2,42.3,6.1,60.8l-10.4,0.4l0-0.3c0,0-2-13.6-20.5-12.9
				c-18.5,0.7-22.2,14-22.2,14l0,0.9l-13.4,0.5c0.5-12.1,3.5-33.6,5.5-46.8l53.3-4.8v-12.1l0-0.1
				C-1050.8,533.7-1050.3,533.8-1050,534z"/>
			<path style="fill:#FFFFFF;" d="M-1043.8,594.8c0.3,4.9,0.4,8.2,0.4,8.8c0,3-62.6,7-66.2,2.5c-0.7-0.9-0.9-4.2-0.7-8.8l13.4-0.5
				l42.7-1.6L-1043.8,594.8z"/>
			<path style="fill:#FFA3AC;" d="M-1097,596.8l0-0.9c0,0,3.7-13.3,22.2-14c18.5-0.7,20.5,12.9,20.5,12.9l0,0.3L-1097,596.8z"/>
			<path style="fill:#FFFFFF;" d="M-1051.5,533.6L-1051.5,533.6l0,12.2l-53.3,4.8c1-6.8,1.8-11.4,1.8-11.4
				C-1088.6,532.5-1059.2,532.1-1051.5,533.6z"/>
		</g>
		<g>
			<path style="fill:none;stroke:#821C1A;stroke-width:2;stroke-linecap:round;stroke-linejoin:round;stroke-miterlimit:10;" d="
				M-1051.5,533.6c-7.6-1.4-37.1-1-51.6,5.6c0,0-0.8,4.6-1.8,11.4c-2,13.2-5,34.7-5.5,46.8c-0.2,4.6,0,7.9,0.7,8.8
				c3.6,4.5,66.2,0.4,66.2-2.5c0-0.6-0.1-3.9-0.4-8.8c-0.9-18.5-3.5-59.3-6.1-60.8C-1050.3,533.8-1050.8,533.7-1051.5,533.6z"/>
			
				<polyline style="fill:none;stroke:#821C1A;stroke-width:2;stroke-linecap:round;stroke-linejoin:round;stroke-miterlimit:10;" points="
				-1110.4,597.3 -1097,596.8 -1054.3,595.2 -1043.8,594.8 			"/>
			
				<polyline style="fill:none;stroke:#821C1A;stroke-width:2;stroke-linecap:round;stroke-linejoin:round;stroke-miterlimit:10;" points="
				-1105,550.5 -1104.9,550.5 -1051.5,545.7 -1051.5,533.6 			"/>
			<path style="fill:none;stroke:#821C1A;stroke-width:2;stroke-linecap:round;stroke-linejoin:round;stroke-miterlimit:10;" d="
				M-1097,595.9c0,0,3.7-13.3,22.2-14c18.5-0.7,20.5,12.9,20.5,12.9"/>
		</g>
	</g>
	<g>
		<path style="fill:none;stroke:#821C1A;stroke-width:2;stroke-linecap:round;stroke-linejoin:round;stroke-miterlimit:10;" d="
			M-972.6,552c0,0,16.2-15.6,30.7-22.6c14.5-7,29.4-10.3,34.6-2.1c5.2,8.2-12,14.6-25.8,17.7c-13.8,3.2-33,20.7-28.6,31.4
			c4.4,10.7,20.5,9,28.1,8.8c7.6-0.2,25.8,2.8,22.3,19.2c-3.5,16.4-46.7,6.1-49.8,1.3"/>
		<path style="fill:#FFFFFF;stroke:#821C1A;stroke-width:2;stroke-linecap:round;stroke-linejoin:round;stroke-miterlimit:10;" d="
			M-920.2,541.3c0,0,0.5,11.4-1.5,11s-6.3-7.4-6.3-7.4s-1.7,10-3.9,10.3c-2.2,0.3-6.5-8.3-6.5-8.3S-921.2,542.6-920.2,541.3z"/>
		<path style="fill:#FFFFFF;stroke:#821C1A;stroke-width:2;stroke-linecap:round;stroke-linejoin:round;stroke-miterlimit:10;" d="
			M-930,585.2c0,0,0.3-6.7-2-6.9c-2.3-0.2-7.6,7.2-7.6,7.2s-0.9-8.5-3.7-8.5s-5.2,8.1-5.2,8.1L-930,585.2z"/>
	</g>
	<g>
		<path style="fill:none;stroke:#821C1A;stroke-width:2;stroke-linecap:round;stroke-linejoin:round;stroke-miterlimit:10;" d="
			M-1281.4,577.9c0,0,43,13.5,87.7-27.8"/>
		<path style="fill:#BDCCD4;stroke:#821C1A;stroke-width:2;stroke-linecap:round;stroke-linejoin:round;stroke-miterlimit:10;" d="
			M-1211.7,571.7c3.7,11.8-4.3,24.8-17.9,29c-13.6,4.2-27.5-1.9-31.2-13.6c-3.7-11.8,4.3-24.8,17.9-29
			C-1229.4,553.8-1215.4,559.9-1211.7,571.7z"/>
		<path style="fill:#67ABE2;stroke:#821C1A;stroke-width:2;stroke-linecap:round;stroke-linejoin:round;stroke-miterlimit:10;" d="
			M-1244,577.9c0,0,0.4,0.3,0.3,0.9c0,0.6,0.2,1.5,0.2,2.6c0,2.2,0.2,5.4,0.8,9.1c0.3,1.8,0.8,3.7,1.5,5.5c0.7,1.8,1.7,3.5,3,4.7
			c1.3,1.2,2.9,2,4.8,2.4c0.5,0.1,1,0.2,1.5,0.2c0.5,0,1,0.1,1.6,0l1.5-0.1c0.6-0.1,1.3-0.2,1.9-0.2c0.5-0.1,0.9-0.2,1.4-0.3
			c0.5-0.2,1-0.3,1.4-0.5l0.6-0.3l0.6-0.3c0.4-0.2,0.7-0.5,1-0.7c0.6-0.5,1-1.2,1.4-1.9c0.3-0.8,0.6-1.6,0.7-2.6c0.2-1.9,0-4-0.3-6
			c-0.4-2-0.9-3.9-1.5-5.7c-1.2-3.5-2.6-6.4-3.6-8.3c-0.5-0.9-1-1.7-1.3-2.1c-0.3-0.4-0.5-0.7-0.5-0.7l-0.1-0.1
			c-0.3-0.4-0.2-1.1,0.2-1.4c0.3-0.3,0.8-0.2,1.1,0c0,0,0.1,0.1,0.2,0.1c0.1,0.1,0.4,0.2,0.6,0.5c0.5,0.4,1.3,1,2.1,1.9
			c1.7,1.8,3.8,4.4,5.8,8.1c1,1.8,1.9,3.9,2.7,6.2c0.7,2.4,1.3,5,1.2,8c-0.1,1.5-0.4,3.1-0.9,4.7c-0.6,1.6-1.6,3.1-2.8,4.4
			c-1.3,1.2-2.8,2.3-4.3,2.9c-0.8,0.4-1.5,0.6-2.3,0.8c-0.8,0.2-1.6,0.4-2.4,0.5c-0.7,0.1-1.3,0.2-2,0.2l-0.1,0l-0.2,0l-0.1,0
			l-0.3,0l-0.6,0l-1.1,0c-0.8,0-1.5-0.1-2.3-0.1c-0.8-0.1-1.6-0.3-2.3-0.4c-3.1-0.7-6.1-2.5-8.2-4.8c-2-2.4-3.2-5.1-3.8-7.5
			c-0.6-2.5-0.8-4.8-0.8-6.9c0-2.1,0.2-4,0.5-5.6c0.2-1.6,0.6-3.1,0.9-4.2c0.3-1.2,0.6-2,0.8-2.6c0.2-0.6,0.3-0.9,0.3-0.9
			c0.2-0.5,0.4-0.8,1-0.6C-1243.9,577.1-1244,577.5-1244,577.9L-1244,577.9z"/>
		<path style="fill:#FFFFFF;stroke:#821C1A;stroke-width:2;stroke-miterlimit:10;" d="M-1225.6,564.2c0,1-1.1,1.9-2.4,1.9
			c-1.3,0-2.4-0.8-2.4-1.9c0-1,1.1-1.9,2.4-1.9C-1226.7,562.3-1225.6,563.2-1225.6,564.2z"/>
		<path style="fill:#FFFFFF;stroke:#821C1A;stroke-width:2;stroke-miterlimit:10;" d="M-1248.8,570.2c0.4,0.9-0.2,2.1-1.4,2.7
			c-1.2,0.5-2.5,0.2-2.9-0.7c-0.4-0.9,0.2-2.1,1.4-2.7C-1250.6,569-1249.3,569.3-1248.8,570.2z"/>
		<path style="fill:none;stroke:#821C1A;stroke-width:2;stroke-linecap:round;stroke-linejoin:round;stroke-miterlimit:10;" d="
			M-1196.7,543.8c0,0,3.1,8.8,9.6,7.9"/>
		<path style="fill:none;stroke:#821C1A;stroke-width:2;stroke-linecap:round;stroke-linejoin:round;stroke-miterlimit:10;" d="
			M-1280,572.9c0,0-0.8,5.6-6,8.4"/>
	</g>
	<g id="XMLID_3_">
		<g>
			<path style="fill:#FF7BAC;" d="M-822.1,606.1c0,0,7-3.6,12.5-0.4c-1,7.3-2.7,13.5-5.5,13.5C-818.1,619.2-820.4,613.3-822.1,606.1
				z"/>
			<path style="fill:#821C1A;" d="M-808.3,583.1c0,0,0,12.4-1.4,22.6c-5.4-3.2-12.5,0.4-12.5,0.4c-2.5-10.2-3.7-22.9-3.3-24
				C-820,582.9-814,583.3-808.3,583.1L-808.3,583.1z"/>
		</g>
		<g>
			<path style="fill:none;stroke:#821C1A;stroke-width:2;stroke-linecap:round;stroke-linejoin:round;stroke-miterlimit:10;" d="
				M-825.5,582.2c5.5,0.8,11.5,1.1,17.2,0.8c12.2-0.6,22.7-3.9,22.9-11.4c0.3-16.7-4-15.6-4-15.6s3.6-5.6,7.4-4.1"/>
			<path style="fill:none;stroke:#821C1A;stroke-width:2;stroke-linecap:round;stroke-linejoin:round;stroke-miterlimit:10;" d="
				M-839.2,548.9c0,0,8.1-2,10.6,0c0,0-23.2,17.2-16.2,26.3c2.4,3.1,10.2,5.7,19.3,6.9"/>
			<path style="fill:none;stroke:#821C1A;stroke-width:2;stroke-linecap:round;stroke-linejoin:round;stroke-miterlimit:10;" d="
				M-825.5,582.2L-825.5,582.2c-0.4,1.1,0.9,13.7,3.3,24c1.7,7.1,4.1,13.1,6.9,13.1c2.9,0,4.5-6.2,5.5-13.5
				c1.4-10.3,1.4-22.6,1.4-22.6"/>
			<path style="fill:none;stroke:#821C1A;stroke-width:2;stroke-linecap:round;stroke-linejoin:round;stroke-miterlimit:10;" d="
				M-822.1,606.1c0,0,7-3.6,12.5-0.4"/>
		</g>
	</g>
	<g>
		<g id="XMLID_4_">
			<g>
				<path style="fill:#FFFFFF;" d="M-816.9,677.4c0,0-4.5,15.7-6.3,19c0,0-14.1-3.3-18.2-2.1c0,0,14.3,1.5,17.6,3.2
					c0,0,7.8,20.3,8.2,36.7c-14.6-0.9-34.1-8.7-45.3-7.9c-13,0.9-32,8.8-46.3,8.7l0-0.9c-4.4-12.7,8-35.2,8-35.2
					c2.8-2.2,23.3-3.9,23.3-3.9c-5.2-1.8-23.3,1.8-23.3,1.8l-8-14.5l-1.5-0.1c11.5-9.2,27.8-16.1,47-18.4
					C-855.5,663-833.6,664.6-816.9,677.4z"/>
				<path style="fill:#821C1A;" d="M-899.2,696.7c0,0,18.1-3.6,23.3-1.8c0,0-20.6,1.7-23.3,3.9c0,0-12.4,22.5-8,35.2l0,0.9
					c-8.8-0.1-15.9-3.2-18.5-12.9c-3.9-14,3-28.7,17-40l1.5,0.1L-899.2,696.7z"/>
				<path style="fill:#821C1A;" d="M-797.2,710.3c3.6,20.3-5.5,24.7-18.4,23.9c-0.4-16.4-8.2-36.7-8.2-36.7
					c-3.3-1.8-17.6-3.2-17.6-3.2c4.1-1.2,18.2,2.1,18.2,2.1c1.8-3.3,6.3-19,6.3-19C-807.7,684.5-800,694.9-797.2,710.3z"/>
			</g>
			<g>
				<path style="fill:none;stroke:#821C1A;stroke-width:2;stroke-linecap:round;stroke-linejoin:round;stroke-miterlimit:10;" d="
					M-908.7,682.1c11.5-9.2,27.8-16.1,47-18.4c6.2-0.8,28,0.8,44.8,13.7c9.2,7,16.9,17.5,19.7,32.8c3.6,20.3-5.5,24.7-18.4,23.9
					c-14.6-0.9-34.1-8.7-45.3-7.9c-13,0.9-32,8.8-46.3,8.7c-8.8-0.1-15.9-3.2-18.5-12.9C-929.6,708.1-922.8,693.4-908.7,682.1z"/>
				<path style="fill:none;stroke:#821C1A;stroke-width:2;stroke-linecap:round;stroke-linejoin:round;stroke-miterlimit:10;" d="
					M-907.2,682.2l8,14.5c0,0,18.1-3.6,23.3-1.8c0,0-20.6,1.7-23.3,3.9c0,0-12.4,22.5-8,35.2"/>
				<path style="fill:none;stroke:#821C1A;stroke-width:2;stroke-linecap:round;stroke-linejoin:round;stroke-miterlimit:10;" d="
					M-816.9,677.4c0,0-4.5,15.7-6.3,19c0,0-14.1-3.3-18.2-2.1c0,0,14.3,1.5,17.6,3.2c0,0,7.8,20.3,8.2,36.7"/>
			</g>
		</g>
		<path style="fill:none;stroke:#821C1A;stroke-width:2;stroke-linecap:round;stroke-linejoin:round;stroke-miterlimit:10;" d="
			M-873.7,740.3c0,0,15-5.6,26.4-1.3"/>
	</g>
	<g id="XMLID_5_">
		<g>
			<path style="fill:#FF7BAC;" d="M-1015.3,735.3L-1015.3,735.3c-7.3,3.1-16.2,4.9-26.9,4.6c-14.8-0.5-24.7-6-31.2-13.9
				C-1073.4,726-1045.7,716.1-1015.3,735.3z"/>
			<path style="fill:#821C1A;" d="M-991.8,688c6.2-0.8,9.9-1.6,9.9-1.6s-3.2,36-33.5,48.9v0c-30.4-19.2-58.1-9.3-58.1-9.3
				c-10.4-12.5-12.2-30.9-11.8-44.3c2.4,7.2,9.4,11.8,9.4,11.8s2.8-7.4,10.2-6.1c7.3,1.3,1,14.9,1,14.9c22.3,10.5,62.2,12,66.2,8.6
				C-994.4,707.4-991.8,688-991.8,688z"/>
			<path style="fill:#FFFFFF;" d="M-991.8,688c0,0-2.6,19.4-6.6,22.9c-4,3.4-43.8,1.9-66.2-8.6c0,0,6.3-13.6-1-14.9
				c-7.3-1.3-10.2,6.1-10.2,6.1s-7-4.6-9.4-11.8c0.3-9.7,1.8-16.7,2-17.1c0,0,21.3,21.5,49.4,24.2
				C-1016.8,690.5-1001.3,689.3-991.8,688z"/>
		</g>
		<g>
			<path style="fill:none;stroke:#821C1A;stroke-width:2;stroke-linecap:round;stroke-linejoin:round;stroke-miterlimit:10;" d="
				M-1085.2,681.7c0.3-9.7,1.8-16.7,2-17.1c0,0,21.3,21.5,49.4,24.2c17,1.6,32.5,0.4,42-0.8c6.2-0.8,9.9-1.6,9.9-1.6
				s-3.2,36-33.5,48.9c-7.3,3.1-16.2,4.9-26.9,4.6c-14.8-0.5-24.7-6-31.2-13.9C-1083.8,713.5-1085.6,695.1-1085.2,681.7z"/>
			<path style="fill:none;stroke:#821C1A;stroke-width:2;stroke-linecap:round;stroke-linejoin:round;stroke-miterlimit:10;" d="
				M-1073.4,726c0,0,27.8-9.9,58.1,9.3"/>
			<path style="fill:none;stroke:#821C1A;stroke-width:2;stroke-linecap:round;stroke-linejoin:round;stroke-miterlimit:10;" d="
				M-991.8,688c0,0-2.6,19.4-6.6,22.9c-4,3.4-43.8,1.9-66.2-8.6c0,0,6.3-13.6-1-14.9c-7.3-1.3-10.2,6.1-10.2,6.1s-7-4.6-9.4-11.8
				c0,0,0-0.1,0-0.1"/>
		</g>
	</g>
	<g id="XMLID_6_">
		<g>
			<path style="fill:#FFFFFF;" d="M-1226.6,663.6c0,0.5-0.1,11.9-1.3,13.5c-1.3,1.7-14-3.7-14-3.7c0.6-4.5,1.6-9.1,3.1-13.9
				C-1235.2,661-1231.1,662.5-1226.6,663.6z"/>
			<path style="fill:#FFFFFF;" d="M-1178.9,657.9c0,0,0,6.5-2.3,13.4c-2.3,6.9-34.6,6.8-37.4,6.4c-2.9-0.4-1.3-12.8-1.3-12.8
				C-1207.9,666.6-1193.9,665.3-1178.9,657.9z"/>
			<path style="fill:#821C1A;" d="M-1170.6,653.1c0,0-8.1,14.1-3.1,37.9c5,23.8-4.3,50-26.8,48.4c-10.5-0.8-22.8-8.2-31.4-20.7
				c17.4-17.4,27.8-9.2,27.8-9.2c4,6.5,10.7,14.1,17.1,11.4c10.3-4.4,4-37.5-18-27.1c-18.2-4.6-29,20.3-29.3,21
				c-6.3-10.9-9.9-25.1-7.7-41.5c0,0,12.8,5.3,14,3.7c1.2-1.6,1.3-13,1.3-13.5c2.1,0.5,4.4,1,6.7,1.3c0,0-1.6,12.3,1.3,12.8
				c2.8,0.4,35.1,0.5,37.4-6.4c2.3-6.8,2.3-13.4,2.3-13.4C-1176.2,656.5-1173.4,654.9-1170.6,653.1z"/>
			<path style="fill:#FFA3AC;" d="M-1205,693.9c22-10.4,28.3,22.7,18,27.1c-6.4,2.7-13.1-4.9-17.1-11.4c0,0-10.4-8.2-27.8,9.2
				c-0.9-1.2-1.7-2.5-2.4-3.9C-1234,714.3-1223.2,689.3-1205,693.9z"/>
		</g>
		<g>
			<path style="fill:none;stroke:#821C1A;stroke-width:2;stroke-linecap:round;stroke-linejoin:round;stroke-miterlimit:10;" d="
				M-1260.1,637.2c0,0-0.4,9.4-7.4,14.6"/>
			<path style="fill:none;stroke:#821C1A;stroke-width:2;stroke-linecap:round;stroke-linejoin:round;stroke-miterlimit:10;" d="
				M-1161.3,640c0,0,0.6,2.4,2,4.7c1.1,1.9,2.8,3.7,5.2,4.4"/>
			<path style="fill:none;stroke:#821C1A;stroke-width:2;stroke-linecap:round;stroke-linejoin:round;stroke-miterlimit:10;" d="
				M-1261.9,644.6c0,0,8.7,8.7,23,14.9c3.7,1.6,7.8,3,12.2,4.1c2.1,0.5,4.4,1,6.7,1.3c12,1.7,26,0.5,41-7c2.7-1.3,5.5-2.9,8.3-4.7
				c3.7-2.4,7.5-5.2,11.3-8.4"/>
			<path style="fill:none;stroke:#821C1A;stroke-width:2;stroke-linecap:round;stroke-linejoin:round;stroke-miterlimit:10;" d="
				M-1170.6,653.1c0,0-8.1,14.1-3.1,37.9c5,23.8-4.3,50-26.8,48.4c-10.5-0.8-22.8-8.2-31.4-20.7c-0.9-1.2-1.7-2.5-2.4-3.9
				c-6.3-10.9-9.9-25.1-7.7-41.5c0.6-4.5,1.6-9.1,3.1-13.9v0"/>
			<path style="fill:none;stroke:#821C1A;stroke-width:2;stroke-linecap:round;stroke-linejoin:round;stroke-miterlimit:10;" d="
				M-1242,673.4c0,0,12.8,5.3,14,3.7c1.2-1.6,1.3-13,1.3-13.5c0,0,0,0,0,0"/>
			<path style="fill:none;stroke:#821C1A;stroke-width:2;stroke-linecap:round;stroke-linejoin:round;stroke-miterlimit:10;" d="
				M-1219.9,664.9c0,0-1.6,12.3,1.3,12.8c2.8,0.4,35.1,0.5,37.4-6.4c2.3-6.8,2.3-13.4,2.3-13.4"/>
			<path style="fill:none;stroke:#821C1A;stroke-width:2;stroke-linecap:round;stroke-linejoin:round;stroke-miterlimit:10;" d="
				M-1234.3,714.9C-1234.3,714.9-1234.3,714.9-1234.3,714.9c0.3-0.6,11.1-25.6,29.3-21c1.9,0.5,3.8,1.3,5.8,2.4"/>
			<path style="fill:none;stroke:#821C1A;stroke-width:2;stroke-linecap:round;stroke-linejoin:round;stroke-miterlimit:10;" d="
				M-1207.5,701.4c-0.3,0.7,1,4.3,3.4,8.2c4,6.5,10.7,14.1,17.1,11.4c10.3-4.4,4-37.5-18-27.1"/>
			<path style="fill:none;stroke:#821C1A;stroke-width:2;stroke-linecap:round;stroke-linejoin:round;stroke-miterlimit:10;" d="
				M-1204.1,709.6c0,0-10.4-8.2-27.8,9.2"/>
		</g>
	</g>
	<g id="XMLID_7_">
		<g>
			<path style="fill:#FFFFFF;" d="M-1407.3,710.6c-3,2-6.2,3.3-8.9,2.3c-1-0.3-2.5-1.2-4.3-2.3l1.6-0.2c-0.3-0.9-2.4-7.3-1.1-8.8
				c1.5-1.6,9.4-3.9,9.4-3.9L-1407.3,710.6z"/>
			<path style="fill:#FFFFFF;" d="M-1426.5,654.9l-5,27.9c0,0-2.6,0-3.9,0c-1.3,0-4.9-6.3-4.9-6.3l-2.2,4.4c0,0-1.3,0.3-2.6,0.3
				c-0.9,0-1.9,0-2.4-0.3c-1.2-0.8-0.7-25.4-0.7-26c2.2,1,4.6,1.4,7.3,1.1c7.9-1.1,12-1.5,14.5-1.2L-1426.5,654.9z"/>
			<path style="fill:#FFFFFF;" d="M-1396.9,670c0,0-0.6,1.2-2,1.5c-1.4,0.3-3.9-3.3-3.9-3.3l-1.9,8.5c0,0-6.8-0.7-9-1
				c-2.2-0.2,0.6-12.3,0.6-12.3c3.5,1.5,7.8,2.2,12.6,0.3c1.6-0.6,3-1.1,4.1-1.5L-1396.9,670z"/>
			<path style="fill:#FFFFFF;" d="M-1346.7,704.9c0.3-0.3,4.3-4.3,4-5.8c-0.3-1.5,7-3.6,7-3.6l8.1,3.6l0.4,0.5c-1.8,2.7-3.9,4.9-6,6
				c-8.8,4.5-13.5,7.6-14,8.6c-0.5,0.9-23.7-1.4-29.3-3.4c-1.2-0.5-2.4-0.9-3.4-1.4c-2.9-4.1,7.6-12,11-13.9s9.3,6.7,9.3,6.7
				s2.7-3.3,9.3-3.2C-1344,699-1346.6,704.6-1346.7,704.9z"/>
			<path style="fill:#FFFFFF;" d="M-1331.3,650.5l0.3,23.7l-4,1.4c0,0-1.4-0.7-3.3-1c-1.9-0.3-2.9,4.3-2.9,4.3s-5.4-0.6-6.5-0.8
				c-1.1-0.1-2.8-14.3-2.8-14.3c2.2,0.9,4.3,1.2,8-1.1C-1338.3,660.1-1334.6,654.7-1331.3,650.5z"/>
			<path style="fill:#FFFFFF;" d="M-1312.3,642.6c0.5,3.8-5,13.6-6.3,22.1c0,0-4.7,1.4-7.1,2c-2.4,0.6-2.9-18.8-2.9-19.4
				c0,0,0,0,0,0c1.5-1.6,2.9-2.7,4.3-3.1C-1319.2,643-1312.9,638-1312.3,642.6z"/>
			<path style="fill:#821C1A;" d="M-1431.5,682.8l5-27.9l0-0.2c1.6,0.2,2.6,0.6,3.5,1.4c1.5,1.1,5,5.1,10,7.3c0,0-2.8,12.1-0.6,12.3
				c2.2,0.2,9,1,9,1l1.9-8.5c0,0,2.5,3.6,3.9,3.3c1.4-0.3,2-1.5,2-1.5l0.6-7.8c7.7-2.8,7.9-2.3,10.1-2c2.6,0.3,7.6,6.6,12.4,6.2
				c4.8-0.4,7.9-4.9,15.3-4.9c3.7,0,5.9,1.4,8,2.3c0,0,1.6,14.2,2.8,14.3c1.1,0.1,6.5,0.8,6.5,0.8s1-4.6,2.9-4.3
				c1.9,0.3,3.3,1,3.3,1l4-1.4l-0.3-23.7c0.9-1.2,1.8-2.3,2.7-3.2c0,0.6,0.5,20,2.9,19.4c2.4-0.6,7.1-2,7.1-2
				c-0.3,1.9-0.4,3.7-0.1,5.4c0.9,7-2.8,21.2-8.5,29.6l-0.4-0.5l-8.1-3.6c0,0-7.3,2.1-7,3.6c0.3,1.5-3.7,5.5-4,5.8
				c0.1-0.3,2.8-5.9-3.7-5.9c-6.6,0-9.3,3.2-9.3,3.2s-6-8.6-9.3-6.7s-13.9,9.8-11,13.9c-3.7-1.7-6.4-3.3-8.9-2.1
				c0,0-7.2-5.2-11.9-1.6c-2,1.6-4.3,3.4-6.6,4.9l-3.3-12.9c0,0-7.9,2.3-9.4,3.9c-1.4,1.5,0.8,7.9,1.1,8.8l-1.6,0.2
				c-7.5-4.5-20.2-13.6-22.2-13c-1.5,0.5-3.9-1.8-7.2-1.8l4.3,0c1.4-4.9,0.5-14.6,0.5-14.6c1.3-0.1,2.6-0.3,2.6-0.3l2.2-4.4
				c0,0,3.6,6.3,4.9,6.3C-1434.1,682.8-1431.5,682.8-1431.5,682.8z"/>
		</g>
		<g>
			<path style="fill:none;stroke:#821C1A;stroke-width:2;stroke-linecap:round;stroke-linejoin:round;stroke-miterlimit:10;" d="
				M-1328.6,647.3c1.5-1.6,2.9-2.7,4.3-3.1c5.2-1.2,11.4-6.1,12-1.6c0.5,3.8-5,13.6-6.3,22.1c-0.3,1.9-0.4,3.7-0.1,5.4
				c0.9,7-2.8,21.2-8.5,29.6c-1.8,2.7-3.9,4.9-6,6c-8.8,4.5-13.5,7.6-14,8.6c-0.5,0.9-23.7-1.4-29.3-3.4c-1.2-0.5-2.4-0.9-3.4-1.4
				c-3.7-1.7-6.4-3.3-8.9-2.1c0,0-7.2-5.2-11.9-1.6c-2,1.6-4.3,3.4-6.6,4.9c-3,2-6.2,3.3-8.9,2.3c-1-0.3-2.5-1.2-4.3-2.3
				c-7.5-4.5-20.2-13.6-22.2-13c-1.5,0.5-3.9-1.8-7.2-1.8c-2.1,0-4.5,0.9-7.5,3.8c-7.6,7.6-10.7-5.1-14.4,5.2"/>
			<path style="fill:none;stroke:#821C1A;stroke-width:2;stroke-linecap:round;stroke-linejoin:round;stroke-miterlimit:10;" d="
				M-1461.7,639.1c-0.3,0.9,4.9,12.1,13.4,15.8c2.2,1,4.6,1.4,7.3,1.1c7.9-1.1,12-1.5,14.5-1.2c1.6,0.2,2.6,0.6,3.5,1.4
				c1.5,1.1,5,5.1,10,7.3c3.5,1.5,7.8,2.2,12.6,0.3c1.6-0.6,3-1.1,4.1-1.5c7.7-2.8,7.9-2.3,10.1-2c2.6,0.3,7.6,6.6,12.4,6.2
				c4.8-0.4,7.9-4.9,15.3-4.9c3.7,0,5.9,1.4,8,2.3c2.2,0.9,4.3,1.2,8-1.1c4.2-2.6,7.8-7.9,11.2-12.2c0.9-1.2,1.8-2.3,2.7-3.2"/>
			<path style="fill:none;stroke:#821C1A;stroke-width:2;stroke-linecap:round;stroke-linejoin:round;stroke-miterlimit:10;" d="
				M-1404.2,733.1c0,0,14.6,6.5,24.3-0.4"/>
			<path style="fill:none;stroke:#821C1A;stroke-width:2;stroke-linecap:round;stroke-linejoin:round;stroke-miterlimit:10;" d="
				M-1422.5,725.6c-1-1.2,4-5.5,7.1-4.3c3.1,1.3,13.6,4.1,15.1,4.3"/>
			<path style="fill:none;stroke:#821C1A;stroke-width:2;stroke-linecap:round;stroke-linejoin:round;stroke-miterlimit:10;" d="
				M-1426.5,722.7c0,0-5.1,2.6-8,1.9c-2.9-0.7-6.8-6.3-9.8-5.6"/>
			<path style="fill:none;stroke:#821C1A;stroke-width:2;stroke-linecap:round;stroke-linejoin:round;stroke-miterlimit:10;" d="
				M-1448.3,654.9C-1448.3,654.9-1448.3,654.9-1448.3,654.9c0,0.6-0.4,25.2,0.7,26c0.5,0.3,1.5,0.4,2.4,0.3c1.3-0.1,2.6-0.3,2.6-0.3
				l2.2-4.4c0,0,3.6,6.3,4.9,6.3c1.3,0,3.9,0,3.9,0l5-27.9"/>
			<path style="fill:none;stroke:#821C1A;stroke-width:2;stroke-linecap:round;stroke-linejoin:round;stroke-miterlimit:10;" d="
				M-1413,663.5c0,0-2.8,12.1-0.6,12.3c2.2,0.2,9,1,9,1l1.9-8.5c0,0,2.5,3.6,3.9,3.3c1.4-0.3,2-1.5,2-1.5l0.6-7.8"/>
			<path style="fill:none;stroke:#821C1A;stroke-width:2;stroke-linecap:round;stroke-linejoin:round;stroke-miterlimit:10;" d="
				M-1350.4,663.8c0,0,1.6,14.2,2.8,14.3c1.1,0.1,6.5,0.8,6.5,0.8s1-4.6,2.9-4.3c1.9,0.3,3.3,1,3.3,1l4-1.4l-0.3-23.7"/>
			<path style="fill:none;stroke:#821C1A;stroke-width:2;stroke-linecap:round;stroke-linejoin:round;stroke-miterlimit:10;" d="
				M-1328.6,647.3C-1328.6,647.3-1328.6,647.3-1328.6,647.3c0,0.6,0.5,20,2.9,19.4c2.4-0.6,7.1-2,7.1-2"/>
			<path style="fill:none;stroke:#821C1A;stroke-width:2;stroke-linecap:round;stroke-linejoin:round;stroke-miterlimit:10;" d="
				M-1346.7,704.9c0.1-0.3,2.8-5.9-3.7-5.9c-6.6,0-9.3,3.2-9.3,3.2s-6-8.6-9.3-6.7s-13.9,9.8-11,13.9"/>
			<path style="fill:none;stroke:#821C1A;stroke-width:2;stroke-linecap:round;stroke-linejoin:round;stroke-miterlimit:10;" d="
				M-1327.6,699.1l-8.1-3.6c0,0-7.3,2.1-7,3.6c0.3,1.5-3.7,5.5-4,5.8c0,0,0,0,0,0"/>
			<path style="fill:none;stroke:#821C1A;stroke-width:2;stroke-linecap:round;stroke-linejoin:round;stroke-miterlimit:10;" d="
				M-1418.9,710.6c0,0,0,0,0-0.1c-0.3-0.9-2.4-7.3-1.1-8.8c1.5-1.6,9.4-3.9,9.4-3.9l3.3,12.9"/>
			<path style="fill:none;stroke:#821C1A;stroke-width:2;stroke-linecap:round;stroke-linejoin:round;stroke-miterlimit:10;" d="
				M-1392,642.6c0,0,16.1-0.9,17.8,2.4c1.7,3.3,13.4,5.7,14.5,4.5"/>
			<path style="fill:none;stroke:#821C1A;stroke-width:2;stroke-linecap:round;stroke-linejoin:round;stroke-miterlimit:10;" d="
				M-1364.3,640c0,0,4.6,0.1,5.8,0.7"/>
			<path style="fill:none;stroke:#821C1A;stroke-width:2;stroke-linecap:round;stroke-linejoin:round;stroke-miterlimit:10;" d="
				M-1445.1,681.2c0,0,0.9,9.8-0.5,14.6"/>
		</g>
	</g>
	<g>
		<path style="fill:#11159A;" d="M34.7,272.1c-5.6-2.5-13.7-8.6-18.3-13.2c-15.8-16.8-16-18.1-16-121.1c0-85.5,0.5-94.6,4.8-104
			c5.9-12.5,22.4-27.2,35.6-31c6.6-2,38.2-3.1,97.4-3.1c97.4,0,102.8,0.8,118.5,16c4.8,4.6,10.9,12.7,14,18.3
			c5.3,9.9,5.6,12.7,5.6,104.3c0,104.3,0,103.8-17.6,121.3c-16.8,17-18.3,17.3-121.1,17.3C52.5,276.9,44.1,276.4,34.7,272.1z
			 M217.9,249.2c13-5.9,23.7-16.5,29.5-29.5c4.3-9.2,4.8-17.8,4.8-83.9c0-80.9-1-87-15.5-95.1c-6.1-3.3-8.1-3.3-18.3,0.8
			c-6.4,2.3-20.4,12-31,21.4c-29.8,25.9-38.4,31-52.9,31c-14.2,0-21.9-3.6-46.3-21.6C67,56.1,51.3,48,42.3,48
			c-7.4,0-15.8,7.4-17.8,15.8c-0.8,3.3-1.3,38.7-0.8,78.6l0.8,72.8l7.6,12.2c5.6,9.2,11.4,14.5,21.4,19.6L67,254h70.5
			C200.1,254,208.7,253.5,217.9,249.2z"/>
		<path style="fill:#11159A;" d="M48.7,94c-3.6-6.9-3.3-12,1.5-16.5c10.2-10.4,27.7,1.8,21.9,15C68.3,100.6,52.8,101.7,48.7,94z"/>
		<path style="fill:#11159A;" d="M206.9,95.8c-3.8-3.8-3.8-15.5,0-19.3c1.8-1.8,6.1-3.1,9.7-3.1c8.4,0,12.7,4.3,12.7,12.7
			s-4.3,12.7-12.7,12.7C213,98.9,208.7,97.6,206.9,95.8z"/>
	</g>
	<g>
		<path style="fill:none;stroke:#11159A;stroke-width:15;stroke-linecap:round;stroke-linejoin:round;stroke-miterlimit:10;" d="
			M42,139.5c11-0.2,8.8,17.6,22.4,17.4c6.4-0.1,13.6-17.9,21.8-18c6.9-0.1,14.6,17.5,22.3,17.4c7.2-0.1,14.4-17.9,21.9-18
			c7.3-0.1,14.9,17.6,22.2,17.5c7.5-0.1,14.8-17.8,22-17.9c7.7,0,15.2,17.7,22.1,17.7c8.2,0,15.9-17.6,22.2-17.5
			c13.4,0.2,12.9,9.5,12.9,10.2"/>
		<path style="fill:none;stroke:#11159A;stroke-width:6;stroke-linecap:round;stroke-linejoin:round;stroke-miterlimit:10;" d="
			M125.5,175.4c0,0,16.8-7.5,28.8-3.1"/>
		<path style="fill:none;stroke:#11159A;stroke-width:6;stroke-linecap:round;stroke-linejoin:round;stroke-miterlimit:10;" d="
			M137.8,182.4c0,0,7.6-2.8,13,0"/>
	</g>
</g>
</svg>
